<svg version="1.1" id="Layer_1" xmlns="http://www.w3.org/2000/svg" xmlns:xlink="http://www.w3.org/1999/xlink" x="0px" y="0px"
	 width="100%" viewBox="0 0 540 580" enable-background="new 0 0 540 580" xml:space="preserve">
<path fill="#010101" opacity="1.000000" stroke="none" 
	d="
M209.000000,1.000000 
	C319.639008,1.000000 430.278046,1.000000 540.916992,1.000004 
	C540.944641,1.138987 540.996460,1.277967 540.996460,1.416948 
	C541.000000,194.535339 541.000000,387.653748 541.000000,580.886108 
	C361.120972,580.886108 181.241837,580.886108 1.000000,580.886108 
	C1.000000,491.976990 1.000000,402.953522 1.352762,313.467285 
	C2.411013,313.009369 3.116501,313.014252 3.893894,313.481445 
	C4.623201,321.680481 5.065313,329.443420 6.003861,337.145874 
	C6.802540,343.700500 8.099194,350.199402 9.325048,356.694733 
	C9.853619,359.495361 10.543906,362.305084 11.536657,364.970642 
	C13.889714,371.288757 16.386948,377.556671 18.979147,383.781067 
	C21.194124,389.099670 23.458048,394.410950 26.015036,399.569458 
	C27.672083,402.912354 30.628807,405.749329 31.693884,409.215302 
	C33.328495,414.534698 36.187183,418.810272 39.709076,422.921600 
	C42.275162,425.917053 44.488007,429.225555 46.742847,432.474640 
	C49.577694,436.559479 52.174534,440.814667 55.121204,444.814240 
	C56.316090,446.436066 58.328430,447.431610 59.680744,448.966034 
	C63.492840,453.291565 66.810303,458.111938 70.965210,462.061401 
	C76.071693,466.915436 81.905457,470.994873 87.284828,475.573639 
	C94.803963,481.973663 101.879799,488.941681 109.742569,494.875183 
	C115.554993,499.261414 122.305695,502.410370 128.665619,506.063141 
	C134.371185,509.340118 140.020065,512.734131 145.862198,515.750671 
	C154.740982,520.335083 163.762955,524.642456 172.730652,529.054199 
	C173.798187,529.579346 174.907349,530.019775 175.995956,530.502258 
	C186.228378,535.037659 196.384766,539.728699 207.165863,542.929260 
	C215.637375,545.444092 223.958298,548.462341 232.404526,551.067627 
	C237.491730,552.636841 242.628220,554.217041 247.859650,555.093201 
	C251.935883,555.776001 256.193298,555.461060 260.369141,555.431946 
	C262.686493,555.415771 265.079926,555.387329 267.303894,554.827454 
	C275.873474,552.670166 284.355377,550.161255 292.936005,548.052185 
	C298.397461,546.709961 304.073578,546.192993 309.479401,544.682922 
	C319.149445,541.981689 328.706573,538.867676 338.270905,535.801453 
	C341.378784,534.805115 344.417358,533.541199 347.389954,532.185547 
	C352.983307,529.634766 358.319885,526.379028 364.103577,524.422485 
	C371.699463,521.852844 379.375519,519.895996 386.137024,515.143738 
	C391.037811,511.699249 396.731567,509.398102 401.993256,506.447144 
	C406.091980,504.148376 410.086395,501.661163 414.097260,499.208771 
	C419.189575,496.095032 424.610077,493.379089 429.233673,489.673828 
	C434.699097,485.293945 438.781342,478.835632 444.708496,475.474213 
	C451.992279,471.343445 456.744629,465.196198 462.146484,459.432434 
	C464.465607,456.958008 466.234070,453.713043 468.980438,451.955048 
	C472.799408,449.510529 474.811768,445.888214 477.183533,442.443878 
	C479.795593,438.650665 482.100494,434.647308 484.660095,430.816284 
	C488.258362,425.430725 492.069794,420.185028 495.573608,414.740234 
	C496.767731,412.884644 497.196533,410.554718 498.167053,408.533691 
	C501.464844,401.666412 505.008118,394.912109 508.130646,387.967621 
	C509.654358,384.578949 510.438293,380.859711 511.586426,377.299591 
	C513.682922,370.798981 516.743408,364.441406 517.705261,357.779266 
	C519.461426,345.614105 519.980530,333.270355 521.389526,320.843872 
	C523.506470,315.016479 524.416931,309.378754 521.060791,303.447845 
	C520.070190,294.702026 519.312744,286.387268 518.124084,278.134583 
	C517.268250,272.193176 515.864746,266.328979 514.651917,260.441376 
	C514.034790,257.445648 513.732910,254.286621 512.537720,251.526505 
	C508.695404,242.653198 504.682129,233.842422 500.376678,225.185638 
	C497.957733,220.322037 495.029877,215.676315 491.981781,211.168823 
	C487.010193,203.816879 481.900543,196.546112 476.538055,189.477081 
	C474.577789,186.893082 471.671814,185.042755 469.301147,182.750305 
	C465.066193,178.655045 461.080261,174.283600 456.653076,170.413239 
	C454.246582,168.309433 450.489044,167.561905 448.486389,165.222168 
	C443.268707,159.126129 436.735352,155.003372 429.870483,151.282242 
	C428.060608,150.301178 425.006195,150.868195 423.854462,149.555954 
	C419.806976,144.944473 413.809113,144.562912 408.885437,141.957672 
	C404.566406,139.672379 399.574036,138.659683 395.052063,136.707123 
	C396.726349,135.910904 398.216553,135.181625 399.730804,135.127777 
	C406.337646,134.892853 412.956665,134.968842 419.559448,134.670456 
	C421.408661,134.586899 423.217529,133.610443 425.461548,133.042282 
	C427.976654,132.368210 430.040558,131.547821 432.179382,131.047791 
	C442.363007,128.667007 452.653107,126.686417 462.727264,123.915993 
	C467.729614,122.540337 472.970917,120.568832 476.988068,117.435867 
	C482.342865,113.259659 488.819397,111.493149 494.369446,107.471916 
	C501.894989,102.019432 510.076508,97.384743 517.003296,91.009384 
	C520.958069,87.369476 524.760071,83.552666 528.850281,80.073463 
	C534.753906,75.051765 540.132996,69.915009 537.976929,60.727013 
	C537.358704,59.571396 536.734924,58.768696 535.780762,57.856087 
	C534.639404,57.479080 533.828491,57.211975 532.961609,56.620991 
	C532.227051,55.880775 531.548340,55.464447 530.484131,55.054054 
	C528.732666,53.985237 527.366821,52.910488 525.934326,51.503151 
	C524.897827,50.785336 523.927979,50.400108 522.568909,50.005749 
	C520.786804,48.940697 519.393860,47.884773 517.931030,46.493248 
	C516.874146,45.783878 515.887207,45.410114 514.530151,45.045494 
	C512.773438,44.008358 511.386871,42.962086 509.938660,41.583363 
	C509.154572,40.869839 508.432159,40.488766 507.360016,40.168045 
	C506.340698,40.085934 505.671112,39.943466 504.929688,39.468338 
	C503.874359,38.768322 502.890869,38.400963 501.576172,38.042877 
	C500.831299,37.936352 500.417572,37.820549 499.993164,37.354248 
	C498.992096,36.334538 498.001709,35.665325 496.636292,34.994644 
	C494.841003,34.642200 493.420654,34.291225 491.993958,33.592049 
	C491.627350,29.436899 489.243011,32.498592 487.658905,31.982681 
	C487.113739,31.740931 486.959961,31.468098 486.906555,30.732908 
	C485.242554,29.902390 483.631866,29.447569 481.637756,28.993839 
	C480.503906,28.897921 479.753510,28.800909 478.940338,28.405760 
	C478.222260,27.749027 477.566895,27.390436 476.542053,27.059677 
	C475.449005,26.989491 474.725494,26.891466 473.994690,26.455513 
	C472.638885,25.752209 471.290314,25.386833 469.693726,24.980545 
	C469.284393,24.661119 469.123077,24.382605 468.903259,23.721474 
	C467.185364,22.908813 465.525909,22.478773 463.503418,22.092041 
	C462.427338,22.036827 461.714264,21.938305 460.993164,21.492496 
	C459.578430,20.793085 458.171753,20.440956 456.460968,20.012836 
	C455.438171,19.579165 454.719421,19.221483 453.899567,18.486610 
	C451.738007,17.783234 449.677551,17.457047 447.238586,17.231230 
	C445.573944,17.152695 444.287842,16.973791 442.995117,16.464024 
	C441.757629,12.446970 440.347137,15.246656 438.624969,15.905382 
	C435.505341,15.120084 432.753510,14.451873 429.889099,13.408266 
	C427.339081,12.738458 424.901672,12.444046 422.047974,12.294531 
	C408.538055,12.332981 395.444427,12.226534 381.899597,12.084574 
	C378.965149,12.633595 376.481842,13.218130 373.601562,13.891751 
	C371.160126,14.329895 369.115631,14.678953 366.772339,14.904705 
	C365.648346,15.451082 364.823151,16.120766 363.610138,16.895329 
	C361.650513,17.053682 360.078766,17.107153 358.159668,17.137928 
	C357.207550,17.669350 356.602814,18.223471 355.606262,18.894897 
	C352.243805,20.045620 349.273071,21.079033 345.941467,22.084835 
	C344.719757,22.632708 343.858978,23.208195 342.687317,23.881741 
	C341.942108,23.995327 341.507751,24.010853 340.704559,24.024446 
	C339.556824,24.974533 338.777954,25.926552 337.745117,27.116493 
	C336.810059,27.288498 336.128967,27.222576 335.088562,27.143353 
	C334.153595,27.754925 333.577972,28.379799 333.001160,29.002260 
	C333.000000,28.999847 333.005432,29.002913 332.666748,29.003569 
	C331.551300,29.594170 330.774567,30.184113 329.770905,30.983969 
	C329.136810,31.169760 328.729645,31.145639 327.928406,31.094795 
	C326.694122,32.058468 325.853882,33.048866 324.852570,34.353142 
	C323.761505,34.767807 322.831543,34.868587 321.581421,35.025887 
	C320.839630,35.974709 320.417969,36.867020 319.767609,38.056957 
	C318.828796,38.676544 317.978058,38.844585 317.430695,39.344696 
	C312.852203,43.528023 308.329498,47.772385 303.466675,52.063374 
	C302.754425,53.069431 302.365479,54.010456 301.991272,54.971817 
	C302.006042,54.992153 301.957336,54.979969 301.602722,54.991302 
	C300.506989,55.691338 299.765808,56.380043 298.949829,57.411026 
	C298.191742,58.834953 297.508484,59.916595 296.483459,61.004463 
	C295.432587,61.682613 294.723511,62.354542 294.005615,63.014641 
	C293.996857,63.002808 294.023560,63.012356 293.651550,63.081451 
	C292.902069,64.238235 292.524597,65.325920 292.244934,66.695206 
	C292.183258,67.317513 292.023743,67.658218 291.545044,68.002441 
	C290.820496,68.671837 290.415131,69.337715 290.001892,70.346405 
	C289.571747,71.458473 289.149506,72.227722 288.401672,73.002502 
	C287.367737,73.633156 286.659393,74.258286 285.950195,74.924347 
	C285.949341,74.965271 285.869659,74.946457 285.558289,75.006950 
	C284.829590,75.934944 284.412231,76.802452 283.637939,77.820518 
	C282.506317,77.975983 281.731598,77.980896 280.666626,78.017075 
	C279.915924,78.586258 279.455566,79.124168 278.654236,79.826035 
	C277.556732,79.998451 276.800171,80.006905 275.679138,80.012779 
	C274.828949,80.024300 274.343201,80.038406 273.514709,79.966125 
	C272.753906,78.595451 272.335907,77.311157 272.260529,75.971085 
	C272.999756,75.357368 273.396332,74.799423 273.792938,74.241486 
	C272.913025,73.827278 272.033081,73.413071 271.034485,72.645004 
	C270.937256,71.546165 270.958710,70.801208 270.987579,69.672195 
	C270.058380,68.191528 269.121704,67.094910 268.051880,65.652756 
	C267.935181,64.567787 267.951660,63.828358 267.979126,62.692192 
	C267.356750,60.863533 266.723328,59.431610 265.952698,57.880795 
	C265.815430,57.761906 265.859070,57.401375 265.866608,57.037300 
	C264.969879,56.115005 264.065582,55.556789 262.994812,54.684822 
	C262.854584,53.663570 262.880798,52.956074 262.897095,51.901028 
	C262.235382,51.043827 261.583618,50.534176 260.642395,49.948891 
	C259.877197,49.256859 259.401489,48.640465 259.271545,47.966690 
	C260.002563,47.335804 260.387817,46.762291 260.773102,46.188774 
	C259.862274,45.786137 258.951477,45.383499 258.016022,44.982857 
	C257.991394,44.984856 258.024567,44.948177 258.017334,44.619522 
	C257.443665,43.525829 256.877228,42.760796 256.127014,41.729141 
	C255.941132,41.031139 255.939026,40.599758 255.905762,39.805016 
	C254.887848,38.971500 253.901108,38.501347 252.548721,38.011681 
	C250.097305,36.002800 248.011551,34.013435 246.274353,31.965176 
	C247.000595,31.321470 247.378281,30.736658 247.755951,30.151844 
	C246.820267,29.777472 245.884598,29.403097 244.974686,29.015430 
	C245.000458,29.002134 244.970901,29.052059 244.935059,28.720953 
	C244.237579,27.936958 243.575958,27.484068 242.570587,27.013069 
	C241.477570,26.016327 240.728317,25.037691 239.945419,23.732811 
	C239.273087,22.938465 238.634384,22.470366 237.997833,22.001095 
	C238.000000,21.999924 237.997833,22.004267 237.990936,21.631104 
	C236.979156,20.510880 235.974243,19.763819 234.984711,19.007656 
	C235.000107,18.998552 234.983871,19.030249 234.933670,18.680515 
	C233.905060,17.896975 232.926651,17.463171 231.973175,17.014523 
	C231.998123,16.999678 231.971329,17.051140 231.972717,16.682747 
	C231.256973,15.565055 230.539841,14.815755 229.433792,14.078365 
	C226.703796,13.037219 224.362701,11.984163 222.008850,10.574882 
	C221.288651,9.494587 220.581223,8.770518 219.497726,8.050915 
	C217.414810,7.326061 215.707947,6.596744 213.994919,5.525079 
	C212.639755,4.795639 211.290741,4.408547 209.676682,3.968371 
	C209.276794,3.603098 209.141968,3.290909 209.006592,2.648931 
	C209.004028,1.879427 209.002014,1.439713 209.000000,1.000000 
z"/>
<path fill="#FCFCFC" opacity="1.000000" stroke="none" 
	d="
M526.000916,51.835739 
	C527.366821,52.910488 528.732666,53.985237 530.553833,55.397011 
	C531.678528,56.137646 532.348022,56.541256 533.017517,56.944870 
	C533.828491,57.211975 534.639404,57.479080 535.817993,58.215828 
	C536.780884,59.483631 537.376099,60.281784 537.971375,61.079933 
	C540.132996,69.915009 534.753906,75.051765 528.850281,80.073463 
	C524.760071,83.552666 520.958069,87.369476 517.003296,91.009384 
	C510.076508,97.384743 501.894989,102.019432 494.369446,107.471916 
	C488.819397,111.493149 482.342865,113.259659 476.988068,117.435867 
	C472.970917,120.568832 467.729614,122.540337 462.727264,123.915993 
	C452.653107,126.686417 442.363007,128.667007 432.179382,131.047791 
	C430.040558,131.547821 427.976654,132.368210 425.001160,132.930817 
	C412.462189,132.820663 400.800323,132.820663 389.138428,132.820663 
	C389.063324,133.439789 388.988220,134.058914 388.913116,134.678055 
	C390.901764,135.480331 392.890411,136.282608 394.879059,137.084885 
	C399.574036,138.659683 404.566406,139.672379 408.885437,141.957672 
	C413.809113,144.562912 419.806976,144.944473 423.854462,149.555954 
	C425.006195,150.868195 428.060608,150.301178 429.870483,151.282242 
	C436.735352,155.003372 443.268707,159.126129 448.486389,165.222168 
	C450.489044,167.561905 454.246582,168.309433 456.653076,170.413239 
	C461.080261,174.283600 465.066193,178.655045 469.301147,182.750305 
	C471.671814,185.042755 474.577789,186.893082 476.538055,189.477081 
	C481.900543,196.546112 487.010193,203.816879 491.981781,211.168823 
	C495.029877,215.676315 497.957733,220.322037 500.376678,225.185638 
	C504.682129,233.842422 508.695404,242.653198 512.537720,251.526505 
	C513.732910,254.286621 514.034790,257.445648 514.651917,260.441376 
	C515.864746,266.328979 517.268250,272.193176 518.124084,278.134583 
	C519.312744,286.387268 520.070190,294.702026 520.881226,303.838898 
	C520.838623,310.125397 520.927124,315.563263 521.015625,321.001099 
	C519.980530,333.270355 519.461426,345.614105 517.705261,357.779266 
	C516.743408,364.441406 513.682922,370.798981 511.586426,377.299591 
	C510.438293,380.859711 509.654358,384.578949 508.130646,387.967621 
	C505.008118,394.912109 501.464844,401.666412 498.167053,408.533691 
	C497.196533,410.554718 496.767731,412.884644 495.573608,414.740234 
	C492.069794,420.185028 488.258362,425.430725 484.660095,430.816284 
	C482.100494,434.647308 479.795593,438.650665 477.183533,442.443878 
	C474.811768,445.888214 472.799408,449.510529 468.980438,451.955048 
	C466.234070,453.713043 464.465607,456.958008 462.146484,459.432434 
	C456.744629,465.196198 451.992279,471.343445 444.708496,475.474213 
	C438.781342,478.835632 434.699097,485.293945 429.233673,489.673828 
	C424.610077,493.379089 419.189575,496.095032 414.097260,499.208771 
	C410.086395,501.661163 406.091980,504.148376 401.993256,506.447144 
	C396.731567,509.398102 391.037811,511.699249 386.137024,515.143738 
	C379.375519,519.895996 371.699463,521.852844 364.103577,524.422485 
	C358.319885,526.379028 352.983307,529.634766 347.389954,532.185547 
	C344.417358,533.541199 341.378784,534.805115 338.270905,535.801453 
	C328.706573,538.867676 319.149445,541.981689 309.479401,544.682922 
	C304.073578,546.192993 298.397461,546.709961 292.936005,548.052185 
	C284.355377,550.161255 275.873474,552.670166 267.303894,554.827454 
	C265.079926,555.387329 262.686493,555.415771 260.369141,555.431946 
	C256.193298,555.461060 251.935883,555.776001 247.859650,555.093201 
	C242.628220,554.217041 237.491730,552.636841 232.404526,551.067627 
	C223.958298,548.462341 215.637375,545.444092 207.165863,542.929260 
	C196.384766,539.728699 186.228378,535.037659 175.995956,530.502258 
	C174.907349,530.019775 173.798187,529.579346 172.730652,529.054199 
	C163.762955,524.642456 154.740982,520.335083 145.862198,515.750671 
	C140.020065,512.734131 134.371185,509.340118 128.665619,506.063141 
	C122.305695,502.410370 115.554993,499.261414 109.742569,494.875183 
	C101.879799,488.941681 94.803963,481.973663 87.284828,475.573639 
	C81.905457,470.994873 76.071693,466.915436 70.965210,462.061401 
	C66.810303,458.111938 63.492840,453.291565 59.680744,448.966034 
	C58.328430,447.431610 56.316090,446.436066 55.121204,444.814240 
	C52.174534,440.814667 49.577694,436.559479 46.742847,432.474640 
	C44.488007,429.225555 42.275162,425.917053 39.709076,422.921600 
	C36.187183,418.810272 33.328495,414.534698 31.693884,409.215302 
	C30.628807,405.749329 27.672083,402.912354 26.015036,399.569458 
	C23.458048,394.410950 21.194124,389.099670 18.979147,383.781067 
	C16.386948,377.556671 13.889714,371.288757 11.536657,364.970642 
	C10.543906,362.305084 9.853619,359.495361 9.325048,356.694733 
	C8.099194,350.199402 6.802540,343.700500 6.003861,337.145874 
	C5.065313,329.443420 4.623201,321.680481 3.972509,313.028992 
	C3.929643,308.736603 3.880066,305.358978 3.901818,301.518768 
	C4.009147,288.883545 4.740616,276.860107 8.712510,265.142273 
	C11.024930,258.320160 12.067837,251.077560 14.123772,244.155380 
	C15.585718,239.233093 17.501398,234.392593 19.738583,229.769135 
	C21.779263,225.551788 24.668230,221.753860 26.923080,217.628845 
	C29.608950,212.715286 31.154112,206.877640 34.762817,202.844559 
	C39.359432,197.707382 43.780006,192.620728 47.920612,187.050140 
	C52.747620,180.556061 59.295124,175.098663 65.840790,170.183121 
	C74.838905,163.425873 84.467255,157.490845 93.989738,151.462845 
	C95.966644,150.211411 98.874268,150.492813 100.980095,149.369064 
	C105.023422,147.211441 108.521400,143.757889 112.748375,142.279022 
	C120.107918,139.704269 127.889366,138.683701 135.175934,135.355438 
	C140.755051,132.807068 147.256683,132.126938 153.424850,131.060226 
	C160.217850,129.885483 167.103836,128.435974 173.940292,128.480820 
	C192.672302,128.603622 211.404922,129.321106 230.124191,130.113007 
	C233.899490,130.272705 237.665085,131.634827 241.350967,132.726746 
	C248.401398,134.815399 250.943253,133.398529 251.418793,126.859558 
	C252.127258,124.127815 252.476608,121.555183 252.895447,118.657211 
	C253.023941,117.894493 253.082932,117.457130 253.544098,116.985435 
	C256.215485,114.956139 256.980988,107.422852 255.028290,105.362617 
	C254.671600,104.986259 253.805588,105.092583 253.099487,104.652298 
	C252.966217,103.891205 252.908127,103.453911 252.925842,102.581192 
	C252.349167,99.069046 251.696655,95.992340 251.021118,92.482712 
	C250.934952,82.797157 247.506119,74.446960 244.003464,66.125626 
	C243.262482,64.365273 242.560089,62.495914 241.402237,61.020168 
	C236.842224,55.208172 231.305176,49.997662 227.650406,43.684212 
	C223.512802,36.536686 216.261536,33.841904 210.489563,29.101171 
	C205.073074,24.652430 199.008774,21.001740 193.380402,16.797880 
	C190.386063,14.561386 190.338211,11.801094 192.457947,8.612589 
	C193.989746,6.308486 194.843719,3.553755 196.000000,0.999999 
	C199.361282,1.000000 202.722580,1.000000 206.640549,1.303971 
	C207.800537,2.064868 208.403839,2.521794 209.007141,2.978721 
	C209.141968,3.290909 209.276794,3.603098 209.833176,4.280298 
	C211.503510,5.052680 212.752304,5.460052 214.001083,5.867425 
	C215.707947,6.596744 217.414810,7.326061 219.565186,8.417824 
	C220.679672,9.497217 221.350632,10.214165 222.021606,10.931110 
	C224.362701,11.984163 226.703796,13.037219 229.487305,14.451159 
	C230.610260,15.558412 231.290787,16.304779 231.971329,17.051144 
	C231.971329,17.051140 231.998123,16.999678 232.026154,17.383095 
	C233.030762,18.187757 234.007309,18.609005 234.983871,19.030251 
	C234.983871,19.030249 235.000107,18.998552 235.036987,19.390034 
	C236.048538,20.522429 237.023193,21.263346 237.997833,22.004265 
	C237.997833,22.004267 238.000000,21.999924 238.053772,22.336872 
	C238.731384,23.135567 239.355225,23.597311 239.979050,24.059055 
	C240.728317,25.037691 241.477570,26.016327 242.638306,27.353495 
	C243.690140,28.158707 244.330521,28.605383 244.970901,29.052059 
	C244.970901,29.052059 245.000458,29.002134 245.016220,29.359051 
	C245.329910,30.485332 245.627853,31.254696 245.925797,32.024063 
	C248.011551,34.013435 250.097305,36.002800 252.617065,38.379997 
	C254.013031,39.234676 254.974991,39.701527 255.936935,40.168377 
	C255.939026,40.599758 255.941132,41.031139 256.136871,42.066643 
	C256.895203,43.429897 257.459869,44.189037 258.024567,44.948177 
	C258.024567,44.948177 257.991394,44.984856 258.015228,45.333149 
	C258.334625,46.462315 258.630219,47.243187 258.925781,48.024063 
	C259.401489,48.640465 259.877197,49.256859 260.717987,50.296410 
	C261.691040,51.229237 262.299042,51.738907 262.907013,52.248581 
	C262.880798,52.956074 262.854584,53.663570 262.961060,55.071777 
	C264.015533,56.315449 264.937286,56.858410 265.859070,57.401375 
	C265.859070,57.401375 265.815430,57.761906 265.923035,58.273331 
	C266.676483,60.219482 267.322296,61.654205 267.968140,63.088924 
	C267.951660,63.828358 267.935181,64.567787 268.005798,66.025726 
	C269.055298,67.848228 270.017731,68.952240 270.980164,70.056244 
	C270.958710,70.801208 270.937256,71.546165 270.978699,72.990112 
	C271.333710,74.468353 271.625793,75.247612 271.917908,76.026863 
	C272.335907,77.311157 272.753906,78.595451 273.609283,80.280113 
	C274.464111,81.036583 274.881561,81.392677 275.299011,81.748779 
	C275.547211,81.170975 275.795441,80.593170 276.043640,80.015366 
	C276.800171,80.006905 277.556732,79.998451 278.954834,79.809982 
	C280.049927,79.081917 280.503418,78.533859 280.956909,77.985809 
	C281.731598,77.980896 282.506317,77.975983 283.976624,77.814255 
	C285.071350,76.753769 285.470520,75.850113 285.869659,74.946457 
	C285.869659,74.946457 285.949341,74.965271 286.307251,74.889565 
	C287.352509,74.208229 288.039886,73.602600 288.727264,72.996971 
	C289.149506,72.227722 289.571747,71.458473 290.342010,70.299805 
	C291.081421,69.273232 291.472809,68.636070 291.864227,67.998909 
	C292.023743,67.658218 292.183258,67.317513 292.635193,66.663208 
	C293.292969,65.237190 293.658264,64.124771 294.023560,63.012356 
	C294.023560,63.012356 293.996857,63.002808 294.355682,62.930939 
	C295.418060,62.238792 296.121643,61.618507 296.825226,60.998230 
	C297.508484,59.916595 298.191742,58.834953 299.314667,57.341366 
	C300.488678,56.279602 301.222992,55.629784 301.957336,54.979965 
	C301.957336,54.979969 302.006042,54.992153 302.327209,54.879532 
	C303.028870,53.844055 303.409393,52.921200 303.789948,51.998344 
	C308.329498,47.772385 312.852203,43.528023 317.430695,39.344696 
	C317.978058,38.844585 318.828796,38.676544 320.106934,38.022827 
	C321.083832,36.783840 321.492706,35.876602 321.901581,34.969368 
	C322.831543,34.868587 323.761505,34.767807 325.255524,34.325035 
	C326.653870,33.029202 327.488159,32.075356 328.322479,31.121517 
	C328.729645,31.145639 329.136810,31.169760 330.123138,30.988064 
	C331.470001,30.189137 332.237732,29.596025 333.005432,29.002914 
	C333.005432,29.002913 333.000000,28.999847 333.376770,28.993765 
	C334.318298,28.377338 334.883087,27.766993 335.447876,27.156651 
	C336.128967,27.222576 336.810059,27.288498 338.093536,27.132399 
	C339.488434,25.949047 340.280914,24.987713 341.073425,24.026379 
	C341.507751,24.010853 341.942108,23.995327 343.063629,23.942780 
	C344.601349,23.307987 345.451843,22.710218 346.302368,22.112448 
	C349.273071,21.079033 352.243805,20.045620 355.972656,18.943430 
	C357.322845,18.303308 357.914917,17.731962 358.506989,17.160622 
	C360.078766,17.107153 361.650513,17.053682 363.977051,16.953236 
	C365.511597,16.280178 366.291382,15.654096 367.071167,15.028012 
	C369.115631,14.678953 371.160126,14.329895 374.028931,13.958221 
	C377.352448,13.330431 379.851624,12.725257 382.350769,12.120085 
	C395.444427,12.226534 408.538055,12.332981 422.209961,12.674564 
	C425.192688,13.201022 427.597168,13.492342 430.001648,13.783662 
	C432.753510,14.451873 435.505341,15.120084 438.781311,16.243883 
	C440.537567,16.731277 441.769653,16.763083 443.001770,16.794888 
	C444.287842,16.973791 445.573944,17.152695 447.330505,17.630096 
	C449.867554,18.240328 451.934113,18.552063 454.000702,18.863800 
	C454.719421,19.221483 455.438171,19.579165 456.555908,20.389936 
	C458.303711,21.175278 459.652466,21.507528 461.001221,21.839779 
	C461.714264,21.938305 462.427338,22.036827 463.622681,22.461300 
	C465.723938,23.226196 467.342834,23.665144 468.961761,24.104090 
	C469.123077,24.382605 469.284393,24.661119 469.850525,25.292793 
	C471.504181,26.028454 472.753082,26.410952 474.001953,26.793446 
	C474.725494,26.891466 475.449005,26.989491 476.656067,27.361309 
	C477.760742,27.991373 478.381927,28.347641 479.003082,28.703903 
	C479.753510,28.800909 480.503906,28.897921 481.771423,29.350172 
	C483.845642,30.173141 485.402802,30.640873 486.959930,31.108604 
	C486.959961,31.468098 487.113739,31.740931 487.721191,32.371006 
	C489.347534,33.190022 490.673920,33.565132 492.000336,33.940247 
	C493.420654,34.291225 494.841003,34.642200 496.755219,35.337250 
	C498.167358,36.355797 499.085632,37.030270 500.003876,37.704742 
	C500.417572,37.820549 500.831299,37.936352 501.667053,38.394493 
	C503.059906,39.091557 504.030701,39.446281 505.001526,39.801003 
	C505.671112,39.943466 506.340698,40.085934 507.406799,40.527229 
	C508.535675,41.189308 509.267975,41.552555 510.000305,41.915806 
	C511.386871,42.962086 512.773438,44.008358 514.618896,45.398827 
	C516.052124,46.104954 517.026550,46.466896 518.000977,46.828842 
	C519.393860,47.884773 520.786804,48.940697 522.659729,50.355011 
	C524.093506,51.087513 525.047180,51.461628 526.000916,51.835739 
M499.952179,319.056091 
	C499.968506,316.957245 500.240417,314.820190 499.933563,312.769684 
	C499.584045,310.434326 498.718109,308.176270 498.000397,304.968231 
	C497.665192,299.222931 497.790314,293.404327 496.889160,287.749207 
	C495.466187,278.819580 494.540649,269.522552 491.217346,261.260895 
	C487.529205,252.092255 484.518494,242.557648 479.302307,233.902557 
	C475.585480,227.735260 473.377441,220.677750 467.471130,215.948776 
	C466.862671,215.461594 466.482391,214.666809 466.057159,213.977188 
	C463.551971,209.914062 461.184662,205.759079 458.520782,201.803513 
	C457.197418,199.838562 455.662598,197.573135 453.660950,196.596329 
	C448.899261,194.272552 446.034119,190.213654 442.664429,186.506363 
	C440.235138,183.833664 437.544678,181.216614 434.503571,179.326141 
	C430.385529,176.766174 424.500885,175.979370 421.749481,172.534607 
	C417.382507,167.067123 410.865051,166.477829 405.641998,163.441132 
	C397.108826,158.479935 387.287476,155.076996 377.585693,152.950577 
	C365.623016,150.328598 353.226288,149.686813 340.244507,147.836639 
	C336.823822,147.615936 333.403168,147.395233 329.332153,147.037552 
	C328.893860,147.083206 328.455566,147.128860 327.135376,147.008743 
	C324.080414,147.310303 321.025482,147.611877 317.157013,147.998825 
	C315.795532,148.034302 314.434052,148.069794 312.310822,147.720200 
	C308.417816,146.971451 304.445953,145.461243 300.147430,148.865967 
	C298.599091,149.261826 297.060638,149.702560 295.500519,150.044830 
	C291.446381,150.934265 287.295441,151.497314 283.345154,152.715927 
	C278.466156,154.221085 273.675018,156.082565 268.990082,158.121368 
	C265.584747,159.603302 262.216370,161.340622 259.178680,163.461365 
	C252.926147,167.826584 246.590530,172.168777 240.901169,177.211075 
	C237.102661,180.577606 231.641037,182.152084 229.853760,188.049408 
	C228.965759,190.979477 225.949875,193.353683 223.652023,195.744247 
	C220.957184,198.547821 217.386139,200.687225 215.276535,203.838608 
	C210.726196,210.636108 206.807770,217.862701 202.765289,224.990005 
	C201.687424,226.890396 201.174408,229.102142 200.266937,231.109863 
	C197.233307,237.821594 193.656143,244.334442 191.202087,251.248230 
	C188.725433,258.225647 187.310287,265.582855 185.492050,272.789307 
	C184.863586,275.280212 184.482071,277.832733 183.882004,280.331696 
	C182.287613,286.971802 179.706360,293.528748 179.205399,300.244659 
	C178.245880,313.107635 178.455597,326.057831 178.010239,339.863068 
	C178.038345,342.580780 178.066452,345.298523 177.849396,348.764618 
	C175.953644,351.095703 174.421326,354.858612 172.084457,355.451782 
	C167.594223,356.591522 162.918900,357.090820 158.696304,352.372803 
	C155.551025,348.858490 156.412079,345.545990 156.751556,341.870361 
	C157.159103,341.236206 157.912201,340.606842 157.921066,339.967133 
	C158.016693,333.066193 158.055099,326.162415 157.920944,319.263092 
	C157.906113,318.500214 156.722061,317.760040 156.071320,316.071228 
	C156.097626,310.247406 155.649963,304.370911 156.289902,298.615326 
	C156.873901,293.362854 159.284317,288.297119 159.735535,283.049835 
	C160.516403,273.968628 162.682068,265.342377 165.991455,256.930084 
	C167.570480,252.916199 169.613358,249.023849 170.671860,244.878738 
	C172.898804,236.157806 175.887924,227.981262 180.667328,220.162720 
	C184.986145,213.097626 188.830063,205.781815 193.396469,198.778046 
	C199.741180,189.046783 206.439194,179.780609 214.799118,171.785538 
	C219.963058,166.846939 225.657639,162.466385 230.909943,157.614426 
	C232.039993,156.570496 232.830780,154.538239 232.724823,153.035507 
	C232.670624,152.266953 230.296768,151.094879 228.953247,151.069687 
	C209.808746,150.710922 190.653320,150.104187 171.517761,150.466492 
	C162.587112,150.635590 153.575439,152.226532 144.822144,154.170822 
	C138.369751,155.604065 132.434692,159.367004 125.982193,160.798996 
	C118.445694,162.471558 112.408440,166.892899 105.671982,169.987473 
	C101.694206,171.814774 98.097321,174.481445 94.360771,176.821136 
	C89.261314,180.014221 82.274773,182.120087 79.543114,186.732727 
	C75.044441,194.329132 66.398262,196.908539 62.140736,204.903046 
	C57.857944,212.944992 50.203522,219.175583 46.437889,227.901062 
	C45.713970,229.578491 45.218529,231.371796 44.351189,232.966705 
	C42.015518,237.261642 39.203804,241.329605 37.215271,245.771591 
	C35.533554,249.528214 34.708096,253.673126 33.563896,257.663452 
	C32.915646,259.924194 32.318161,262.204376 31.820009,264.502319 
	C30.223158,271.868439 28.647577,279.239624 27.136360,286.623657 
	C26.372862,290.354279 25.765638,294.116882 24.988867,298.716461 
	C25.023384,303.818298 25.057901,308.920105 25.011990,314.836456 
	C25.724207,319.427368 26.470125,324.013336 27.140699,328.610321 
	C28.131424,335.402100 28.472286,342.356323 30.184576,348.957458 
	C32.174278,356.628052 35.236481,364.033264 38.039406,371.476044 
	C40.347702,377.605347 42.481522,383.874786 45.547878,389.626160 
	C49.805325,397.611572 54.817425,405.198578 59.591640,412.903320 
	C63.513966,419.233246 67.389992,425.502838 72.861076,430.818726 
	C78.362968,436.164612 82.833839,442.557526 87.999565,448.271851 
	C89.601219,450.043610 92.289696,450.811737 93.972519,452.535400 
	C98.416191,457.086914 101.971359,462.743378 107.002411,466.427551 
	C114.305779,471.775696 122.090187,476.386383 129.146210,482.230408 
	C135.217178,487.258606 142.479218,490.942139 149.480911,494.727722 
	C156.942627,498.762085 164.627960,502.417694 172.377365,505.876343 
	C182.096252,510.214050 191.924881,514.320312 201.809372,518.268066 
	C209.650208,521.399597 217.607056,524.255615 225.585648,527.022705 
	C232.363831,529.373535 239.216446,531.524109 246.093643,533.569946 
	C250.881836,534.994385 255.340378,536.701721 260.862183,534.716736 
	C268.402710,532.006042 276.526459,530.935181 284.377380,529.065735 
	C292.348145,527.167664 300.423096,525.565552 308.209473,523.074463 
	C316.063385,520.561829 324.318451,519.545288 331.793671,515.380554 
	C337.229675,512.351929 343.829407,512.098022 349.582611,508.684937 
	C356.779755,504.415161 365.150482,502.135345 372.982971,498.919495 
	C376.545593,497.456726 380.239014,496.148346 383.501617,494.160309 
	C387.673553,491.618103 391.411407,488.374084 395.457733,485.610199 
	C397.082001,484.500763 399.252960,484.151703 400.787628,482.958282 
	C405.907379,478.976837 410.772675,474.765930 416.948059,472.248810 
	C419.804626,471.084442 422.278076,468.675293 424.551910,466.449158 
	C429.355774,461.746063 433.198853,455.584839 438.774780,452.281616 
	C444.312714,449.000916 447.333649,444.050476 450.830414,439.559814 
	C456.184937,432.683319 463.063171,427.025116 466.597778,418.531982 
	C469.036255,412.672760 474.069672,407.942566 476.974518,402.216309 
	C480.878845,394.519745 483.948425,386.389526 487.189941,378.370117 
	C489.868469,371.743500 493.113586,365.186981 494.595306,358.275208 
	C496.508392,349.351288 496.915680,340.104523 498.709320,330.679565 
	C499.082336,327.109039 499.455353,323.538513 499.952179,319.056091 
M280.040497,130.120758 
	C290.714813,128.875687 301.363739,127.288544 312.071472,126.493675 
	C320.652161,125.856705 329.304260,126.181587 338.413605,126.658287 
	C343.219360,127.230721 348.025116,127.803146 352.830872,128.375565 
	C352.926025,127.684624 353.021149,126.993675 353.116302,126.302727 
	C350.721375,125.566513 348.326447,124.830299 345.142456,124.009911 
	C340.164886,121.897972 334.966919,120.185013 330.259521,117.584099 
	C322.465942,113.278053 314.928741,108.493584 307.417206,103.701187 
	C305.385162,102.404732 304.110199,99.628983 301.995911,98.823936 
	C298.962341,97.668861 297.226349,92.536438 292.421722,95.950310 
	C288.414429,98.797661 283.881714,101.111839 279.271301,102.828629 
	C276.391754,103.900894 275.946503,105.352158 275.972534,107.892914 
	C276.027069,113.222054 275.889404,118.553162 275.078674,124.122246 
	C274.626709,126.901588 274.174744,129.680923 273.636017,132.993851 
	C276.479980,132.556992 279.520844,134.760162 280.040497,130.120758 
M393.060150,33.965553 
	C377.703522,33.795273 362.982269,36.054848 349.826904,44.794865 
	C346.015137,47.327301 341.822845,49.282604 337.970367,51.759686 
	C335.684509,53.229443 333.807556,55.320808 331.591553,56.917259 
	C328.880676,58.870274 326.007324,60.597794 323.204224,62.422810 
	C323.329529,62.818073 323.454865,63.213337 323.580170,63.608601 
	C327.478394,62.864056 331.397278,62.211773 335.267914,61.344223 
	C338.096161,60.710308 340.829010,59.270248 343.659821,59.097458 
	C353.227081,58.513474 362.818665,58.088524 372.401703,58.073318 
	C380.983917,58.059704 389.579803,58.480877 398.145874,59.061054 
	C404.948334,59.521782 411.715027,60.511555 418.497009,61.271969 
	C418.826630,61.308929 419.152588,61.389565 419.476440,61.465946 
	C425.839386,62.966656 432.177124,64.586784 438.572479,65.933174 
	C443.204376,66.908295 448.021179,67.140808 452.547150,68.433891 
	C455.389893,69.246086 458.377441,70.922646 460.349884,73.080093 
	C463.126007,76.116699 462.337860,84.340797 459.967590,86.073776 
	C454.203094,90.288345 448.238556,90.059807 441.910187,87.496193 
	C438.507477,86.117760 434.956360,84.842896 431.353271,84.272629 
	C421.681763,82.741905 411.978027,80.912888 402.229645,80.471992 
	C380.349426,79.482414 358.431885,79.249664 336.641113,82.291077 
	C332.641357,82.849342 328.649139,83.527061 324.708282,84.397835 
	C323.672455,84.626701 322.564697,85.636322 322.055939,86.589493 
	C321.857544,86.961174 323.079010,88.357315 323.896027,88.956696 
	C326.887177,91.151161 329.912201,93.315353 333.054016,95.284187 
	C336.240906,97.281296 339.437653,99.380592 342.889374,100.808235 
	C347.510406,102.719528 352.518982,103.704201 357.114044,105.665695 
	C365.278595,109.150879 373.643494,111.529037 382.527191,112.009140 
	C384.516357,112.116631 386.494171,112.473854 388.483063,112.539772 
	C398.527039,112.872704 408.630310,113.927544 418.599884,113.194199 
	C426.494324,112.613503 434.255188,109.931496 442.022736,107.973740 
	C455.487640,104.579979 468.691345,100.573761 479.505829,91.179367 
	C481.735168,89.242760 484.329041,87.720085 486.785553,86.051750 
	C493.656525,81.385376 500.636505,76.870430 507.348938,71.987114 
	C508.759857,70.960640 509.210846,68.614700 510.225311,66.641006 
	C508.268188,66.103424 506.662628,66.031281 505.503601,65.274879 
	C502.025696,63.005180 498.968353,59.962978 495.285767,58.168728 
	C491.060181,56.109936 486.518463,55.024681 482.288513,52.487705 
	C475.273010,48.280075 467.535187,45.051262 459.766602,42.387299 
	C451.780701,39.648819 443.489777,37.460770 435.156128,36.165852 
	C425.883270,34.724995 416.411621,34.563828 406.951965,33.040405 
	C404.701050,30.483538 396.182251,30.025723 394.174835,32.403316 
	C393.912201,32.714390 394.029602,33.346340 393.060150,33.965553 
z"/>
<path fill="#010101" opacity="1.000000" stroke="none" 
	d="
M253.141937,117.019760 
	C253.082932,117.457130 253.023941,117.894493 252.504639,118.679489 
	C248.551575,121.301064 249.640060,124.139465 251.059692,127.018669 
	C250.943253,133.398529 248.401398,134.815399 241.350967,132.726746 
	C237.665085,131.634827 233.899490,130.272705 230.124191,130.113007 
	C211.404922,129.321106 192.672302,128.603622 173.940292,128.480820 
	C167.103836,128.435974 160.217850,129.885483 153.424850,131.060226 
	C147.256683,132.126938 140.755051,132.807068 135.175934,135.355438 
	C127.889366,138.683701 120.107918,139.704269 112.748375,142.279022 
	C108.521400,143.757889 105.023422,147.211441 100.980095,149.369064 
	C98.874268,150.492813 95.966644,150.211411 93.989738,151.462845 
	C84.467255,157.490845 74.838905,163.425873 65.840790,170.183121 
	C59.295124,175.098663 52.747620,180.556061 47.920612,187.050140 
	C43.780006,192.620728 39.359432,197.707382 34.762817,202.844559 
	C31.154112,206.877640 29.608950,212.715286 26.923080,217.628845 
	C24.668230,221.753860 21.779263,225.551788 19.738583,229.769135 
	C17.501398,234.392593 15.585718,239.233093 14.123772,244.155380 
	C12.067837,251.077560 11.024930,258.320160 8.712510,265.142273 
	C4.740616,276.860107 4.009147,288.883545 3.548065,301.525635 
	C2.415322,301.996704 1.707661,301.998352 1.000000,302.000000 
	C1.000000,201.755203 1.000000,101.510414 1.000000,1.000000 
	C65.687317,1.000000 130.375000,1.000000 195.531342,0.999999 
	C194.843719,3.553755 193.989746,6.308486 192.457947,8.612589 
	C190.338211,11.801094 190.386063,14.561386 193.380402,16.797880 
	C199.008774,21.001740 205.073074,24.652430 210.489563,29.101171 
	C216.261536,33.841904 223.512802,36.536686 227.650406,43.684212 
	C231.305176,49.997662 236.842224,55.208172 241.402237,61.020168 
	C242.560089,62.495914 243.262482,64.365273 244.003464,66.125626 
	C247.506119,74.446960 250.934952,82.797157 250.845276,92.856903 
	C250.581818,96.972992 247.319321,101.009056 252.850037,103.016617 
	C252.908127,103.453911 252.966217,103.891205 253.019928,105.108932 
	C253.057678,109.599495 253.099808,113.309624 253.141937,117.019760 
z"/>
<path fill="#161616" opacity="1.000000" stroke="none" 
	d="
M1.000000,302.456360 
	C1.707661,301.998352 2.415322,301.996704 3.476736,301.988220 
	C3.880066,305.358978 3.929643,308.736603 3.900605,312.566650 
	C3.116501,313.014252 2.411013,313.009369 1.352762,313.002258 
	C1.000000,309.637573 1.000000,306.275146 1.000000,302.456360 
z"/>
<path fill="#020202" opacity="1.000000" stroke="none" 
	d="
M209.006592,2.648931 
	C208.403839,2.521794 207.800537,2.064868 207.098618,1.303971 
	C207.444443,1.000000 207.888901,1.000000 208.666656,1.000000 
	C209.002014,1.439713 209.004028,1.879427 209.006592,2.648931 
z"/>
<path fill="#929292" opacity="1.000000" stroke="none" 
	d="
M395.052063,136.707123 
	C392.890411,136.282608 390.901764,135.480331 388.913116,134.678055 
	C388.988220,134.058914 389.063324,133.439789 389.138428,132.820663 
	C400.800323,132.820663 412.462189,132.820663 424.584473,132.932129 
	C423.217529,133.610443 421.408661,134.586899 419.559448,134.670456 
	C412.956665,134.968842 406.337646,134.892853 399.730804,135.127777 
	C398.216553,135.181625 396.726349,135.910904 395.052063,136.707123 
z"/>
<path fill="#939393" opacity="1.000000" stroke="none" 
	d="
M521.389526,320.843872 
	C520.927124,315.563263 520.838623,310.125397 520.929688,304.296509 
	C524.416931,309.378754 523.506470,315.016479 521.389526,320.843872 
z"/>
<path fill="#020202" opacity="1.000000" stroke="none" 
	d="
M381.899597,12.084572 
	C379.851624,12.725257 377.352448,13.330431 374.425903,13.869135 
	C376.481842,13.218130 378.965149,12.633595 381.899597,12.084572 
z"/>
<path fill="#020202" opacity="1.000000" stroke="none" 
	d="
M429.889099,13.408266 
	C427.597168,13.492342 425.192688,13.201022 422.626221,12.529669 
	C424.901672,12.444046 427.339081,12.738458 429.889099,13.408266 
z"/>
<path fill="#020202" opacity="1.000000" stroke="none" 
	d="
M453.899567,18.486610 
	C451.934113,18.552063 449.867554,18.240328 447.709045,17.529728 
	C449.677551,17.457047 451.738007,17.783234 453.899567,18.486610 
z"/>
<path fill="#020202" opacity="1.000000" stroke="none" 
	d="
M270.987610,69.672195 
	C270.017731,68.952240 269.055298,67.848228 268.138977,66.371262 
	C269.121704,67.094910 270.058380,68.191528 270.987610,69.672195 
z"/>
<path fill="#020202" opacity="1.000000" stroke="none" 
	d="
M486.906555,30.732908 
	C485.402802,30.640873 483.845642,30.173141 482.154846,29.349079 
	C483.631866,29.447569 485.242554,29.902390 486.906555,30.732908 
z"/>
<path fill="#020202" opacity="1.000000" stroke="none" 
	d="
M442.995117,16.464022 
	C441.769653,16.763083 440.537567,16.731277 439.149109,16.360971 
	C440.347137,15.246656 441.757629,12.446970 442.995117,16.464022 
z"/>
<path fill="#020202" opacity="1.000000" stroke="none" 
	d="
M491.993958,33.592045 
	C490.673920,33.565132 489.347534,33.190022 487.958832,32.426582 
	C489.243011,32.498592 491.627350,29.436899 491.993958,33.592045 
z"/>
<path fill="#020202" opacity="1.000000" stroke="none" 
	d="
M460.993164,21.492496 
	C459.652466,21.507528 458.303711,21.175278 456.859985,20.465927 
	C458.171753,20.440956 459.578430,20.793085 460.993164,21.492496 
z"/>
<path fill="#020202" opacity="1.000000" stroke="none" 
	d="
M468.903259,23.721474 
	C467.342834,23.665144 465.723938,23.226196 463.985748,22.417992 
	C465.525909,22.478773 467.185364,22.908813 468.903259,23.721474 
z"/>
<path fill="#020202" opacity="1.000000" stroke="none" 
	d="
M267.979126,62.692192 
	C267.322296,61.654205 266.676483,60.219482 266.060303,58.392220 
	C266.723328,59.431610 267.356750,60.863533 267.979126,62.692192 
z"/>
<path fill="#020202" opacity="1.000000" stroke="none" 
	d="
M246.274353,31.965172 
	C245.627853,31.254696 245.329910,30.485332 244.990448,29.372345 
	C245.884598,29.403097 246.820267,29.777472 247.755951,30.151844 
	C247.378281,30.736658 247.000595,31.321470 246.274353,31.965172 
z"/>
<path fill="#020202" opacity="1.000000" stroke="none" 
	d="
M213.994919,5.525077 
	C212.752304,5.460052 211.503510,5.052680 210.098236,4.333383 
	C211.290741,4.408547 212.639755,4.795639 213.994919,5.525077 
z"/>
<path fill="#020202" opacity="1.000000" stroke="none" 
	d="
M237.990936,21.631100 
	C237.023193,21.263346 236.048538,20.522429 235.021606,19.399136 
	C235.974243,19.763819 236.979156,20.510880 237.990936,21.631100 
z"/>
<path fill="#020202" opacity="1.000000" stroke="none" 
	d="
M473.994690,26.455519 
	C472.753082,26.410952 471.504181,26.028454 470.098541,25.333706 
	C471.290314,25.386833 472.638885,25.752209 473.994690,26.455519 
z"/>
<path fill="#020202" opacity="1.000000" stroke="none" 
	d="
M272.260529,75.971085 
	C271.625793,75.247612 271.333710,74.468353 271.097412,73.343979 
	C272.033081,73.413071 272.913025,73.827278 273.792938,74.241486 
	C273.396332,74.799423 272.999756,75.357368 272.260529,75.971085 
z"/>
<path fill="#020202" opacity="1.000000" stroke="none" 
	d="
M327.928406,31.094791 
	C327.488159,32.075356 326.653870,33.029202 325.416626,34.011154 
	C325.853882,33.048866 326.694122,32.058468 327.928406,31.094791 
z"/>
<path fill="#020202" opacity="1.000000" stroke="none" 
	d="
M499.993164,37.354248 
	C499.085632,37.030270 498.167358,36.355797 497.130188,35.338718 
	C498.001709,35.665325 498.992096,36.334538 499.993164,37.354248 
z"/>
<path fill="#020202" opacity="1.000000" stroke="none" 
	d="
M259.271545,47.966690 
	C258.630219,47.243187 258.334625,46.462315 258.039856,45.331154 
	C258.951477,45.383499 259.862274,45.786137 260.773102,46.188774 
	C260.387817,46.762291 260.002563,47.335804 259.271545,47.966690 
z"/>
<path fill="#020202" opacity="1.000000" stroke="none" 
	d="
M366.772339,14.904706 
	C366.291382,15.654096 365.511597,16.280178 364.364899,16.848354 
	C364.823151,16.120766 365.648346,15.451082 366.772339,14.904706 
z"/>
<path fill="#020202" opacity="1.000000" stroke="none" 
	d="
M340.704559,24.024448 
	C340.280914,24.987713 339.488434,25.949047 338.347504,26.894474 
	C338.777954,25.926552 339.556824,24.974533 340.704559,24.024448 
z"/>
<path fill="#020202" opacity="1.000000" stroke="none" 
	d="
M525.934326,51.503151 
	C525.047180,51.461628 524.093506,51.087513 523.048950,50.364136 
	C523.927979,50.400108 524.897827,50.785336 525.934326,51.503151 
z"/>
<path fill="#020202" opacity="1.000000" stroke="none" 
	d="
M222.008850,10.574884 
	C221.350632,10.214165 220.679672,9.497217 219.941238,8.413359 
	C220.581223,8.770518 221.288651,9.494587 222.008850,10.574884 
z"/>
<path fill="#020202" opacity="1.000000" stroke="none" 
	d="
M332.666748,29.003571 
	C332.237732,29.596025 331.470001,30.189137 330.350067,30.778152 
	C330.774567,30.184113 331.551300,29.594170 332.666748,29.003571 
z"/>
<path fill="#020202" opacity="1.000000" stroke="none" 
	d="
M231.972717,16.682751 
	C231.290787,16.304779 230.610260,15.558412 229.876221,14.439250 
	C230.539841,14.815755 231.256973,15.565055 231.972717,16.682751 
z"/>
<path fill="#020202" opacity="1.000000" stroke="none" 
	d="
M234.933670,18.680515 
	C234.007309,18.609005 233.030762,18.187757 232.001221,17.397938 
	C232.926651,17.463171 233.905060,17.896975 234.933670,18.680515 
z"/>
<path fill="#020202" opacity="1.000000" stroke="none" 
	d="
M321.581421,35.025883 
	C321.492706,35.876602 321.083832,36.783840 320.335632,37.725204 
	C320.417969,36.867020 320.839630,35.974709 321.581421,35.025883 
z"/>
<path fill="#020202" opacity="1.000000" stroke="none" 
	d="
M345.941467,22.084835 
	C345.451843,22.710218 344.601349,23.307987 343.374512,23.844719 
	C343.858978,23.208195 344.719757,22.632708 345.941467,22.084835 
z"/>
<path fill="#020202" opacity="1.000000" stroke="none" 
	d="
M255.905762,39.805016 
	C254.974991,39.701527 254.013031,39.234676 252.982727,38.399509 
	C253.901108,38.501347 254.887848,38.971500 255.905762,39.805016 
z"/>
<path fill="#020202" opacity="1.000000" stroke="none" 
	d="
M504.929688,39.468346 
	C504.030701,39.446281 503.059906,39.091557 501.998230,38.385216 
	C502.890869,38.400963 503.874359,38.768322 504.929688,39.468346 
z"/>
<path fill="#020202" opacity="1.000000" stroke="none" 
	d="
M288.401672,73.002502 
	C288.039886,73.602600 287.352509,74.208229 286.308105,74.848633 
	C286.659393,74.258286 287.367737,73.633156 288.401672,73.002502 
z"/>
<path fill="#020202" opacity="1.000000" stroke="none" 
	d="
M258.017334,44.619522 
	C257.459869,44.189037 256.895203,43.429897 256.320679,42.333260 
	C256.877228,42.760796 257.443665,43.525829 258.017334,44.619522 
z"/>
<path fill="#020202" opacity="1.000000" stroke="none" 
	d="
M291.545044,68.002426 
	C291.472809,68.636070 291.081421,69.273232 290.349915,69.956993 
	C290.415131,69.337715 290.820496,68.671837 291.545044,68.002426 
z"/>
<path fill="#020202" opacity="1.000000" stroke="none" 
	d="
M293.651550,63.081451 
	C293.658264,64.124771 293.292969,65.237190 292.537384,66.381607 
	C292.524597,65.325920 292.902069,64.238235 293.651550,63.081451 
z"/>
<path fill="#020202" opacity="1.000000" stroke="none" 
	d="
M303.466675,52.063374 
	C303.409393,52.921200 303.028870,53.844055 302.312439,54.859196 
	C302.365479,54.010456 302.754425,53.069431 303.466675,52.063374 
z"/>
<path fill="#020202" opacity="1.000000" stroke="none" 
	d="
M296.483459,61.004456 
	C296.121643,61.618507 295.418060,62.238792 294.364441,62.942772 
	C294.723511,62.354542 295.432587,61.682613 296.483459,61.004456 
z"/>
<path fill="#020202" opacity="1.000000" stroke="none" 
	d="
M537.976929,60.727013 
	C537.376099,60.281784 536.780884,59.483631 536.148376,58.325737 
	C536.734924,58.768696 537.358704,59.571396 537.976929,60.727013 
z"/>
<path fill="#020202" opacity="1.000000" stroke="none" 
	d="
M285.558289,75.006950 
	C285.470520,75.850113 285.071350,76.753769 284.333557,77.663696 
	C284.412231,76.802452 284.829590,75.934944 285.558289,75.006950 
z"/>
<path fill="#020202" opacity="1.000000" stroke="none" 
	d="
M265.866608,57.037296 
	C264.937286,56.858410 264.015533,56.315449 263.127502,55.385532 
	C264.065582,55.556789 264.969879,56.115005 265.866608,57.037296 
z"/>
<path fill="#020202" opacity="1.000000" stroke="none" 
	d="
M517.931030,46.493240 
	C517.026550,46.466896 516.052124,46.104954 514.989014,45.389683 
	C515.887207,45.410114 516.874146,45.783878 517.931030,46.493240 
z"/>
<path fill="#020202" opacity="1.000000" stroke="none" 
	d="
M301.602722,54.991299 
	C301.222992,55.629784 300.488678,56.279602 299.389496,56.999084 
	C299.765808,56.380043 300.506989,55.691338 301.602722,54.991299 
z"/>
<path fill="#020202" opacity="1.000000" stroke="none" 
	d="
M244.935059,28.720953 
	C244.330521,28.605383 243.690140,28.158707 242.982056,27.371603 
	C243.575958,27.484068 244.237579,27.936958 244.935059,28.720953 
z"/>
<path fill="#020202" opacity="1.000000" stroke="none" 
	d="
M478.940338,28.405764 
	C478.381927,28.347641 477.760742,27.991373 477.025574,27.333473 
	C477.566895,27.390436 478.222260,27.749027 478.940338,28.405764 
z"/>
<path fill="#020202" opacity="1.000000" stroke="none" 
	d="
M262.897095,51.901031 
	C262.299042,51.738907 261.691040,51.229237 261.007446,50.372047 
	C261.583618,50.534176 262.235382,51.043827 262.897095,51.901031 
z"/>
<path fill="#020202" opacity="1.000000" stroke="none" 
	d="
M532.961609,56.620987 
	C532.348022,56.541256 531.678528,56.137646 530.939331,55.391075 
	C531.548340,55.464447 532.227051,55.880775 532.961609,56.620987 
z"/>
<path fill="#020202" opacity="1.000000" stroke="none" 
	d="
M335.088562,27.143349 
	C334.883087,27.766993 334.318298,28.377338 333.377930,28.996178 
	C333.577972,28.379799 334.153595,27.754925 335.088562,27.143349 
z"/>
<path fill="#020202" opacity="1.000000" stroke="none" 
	d="
M358.159668,17.137924 
	C357.914917,17.731962 357.322845,18.303308 356.364410,18.826122 
	C356.602814,18.223471 357.207550,17.669350 358.159668,17.137924 
z"/>
<path fill="#020202" opacity="1.000000" stroke="none" 
	d="
M239.945419,23.732811 
	C239.355225,23.597311 238.731384,23.135567 238.051605,22.338045 
	C238.634384,22.470366 239.273087,22.938465 239.945419,23.732811 
z"/>
<path fill="#020202" opacity="1.000000" stroke="none" 
	d="
M509.938660,41.583355 
	C509.267975,41.552555 508.535675,41.189308 507.756531,40.466877 
	C508.432159,40.488766 509.154572,40.869839 509.938660,41.583355 
z"/>
<path fill="#020202" opacity="1.000000" stroke="none" 
	d="
M275.679138,80.012779 
	C275.795441,80.593170 275.547211,81.170975 275.299011,81.748779 
	C274.881561,81.392677 274.464111,81.036583 273.952087,80.366501 
	C274.343201,80.038406 274.828949,80.024300 275.679138,80.012779 
z"/>
<path fill="#020202" opacity="1.000000" stroke="none" 
	d="
M280.666626,78.017075 
	C280.503418,78.533859 280.049927,79.081917 279.295837,79.646019 
	C279.455566,79.124168 279.915924,78.586258 280.666626,78.017075 
z"/>
<path fill="#010101" opacity="1.000000" stroke="none" 
	d="
M155.927536,342.012634 
	C156.412079,345.545990 155.551025,348.858490 158.696304,352.372803 
	C162.918900,357.090820 167.594223,356.591522 172.084457,355.451782 
	C174.421326,354.858612 175.953644,351.095703 178.370941,348.357574 
	C182.288757,345.145294 181.921570,340.517273 178.180130,338.971832 
	C178.455597,326.057831 178.245880,313.107635 179.205399,300.244659 
	C179.706360,293.528748 182.287613,286.971802 183.882004,280.331696 
	C184.482071,277.832733 184.863586,275.280212 185.492050,272.789307 
	C187.310287,265.582855 188.725433,258.225647 191.202087,251.248230 
	C193.656143,244.334442 197.233307,237.821594 200.266937,231.109863 
	C201.174408,229.102142 201.687424,226.890396 202.765289,224.990005 
	C206.807770,217.862701 210.726196,210.636108 215.276535,203.838608 
	C217.386139,200.687225 220.957184,198.547821 223.652023,195.744247 
	C225.949875,193.353683 228.965759,190.979477 229.853760,188.049408 
	C231.641037,182.152084 237.102661,180.577606 240.901169,177.211075 
	C246.590530,172.168777 252.926147,167.826584 259.178680,163.461365 
	C262.216370,161.340622 265.584747,159.603302 268.990082,158.121368 
	C273.675018,156.082565 278.466156,154.221085 283.345154,152.715927 
	C287.295441,151.497314 291.446381,150.934265 295.500519,150.044830 
	C297.060638,149.702560 298.599091,149.261826 300.709778,149.295807 
	C305.205597,149.185532 309.139099,148.645401 313.072571,148.105286 
	C314.434052,148.069794 315.795532,148.034302 317.745850,148.306595 
	C323.013855,151.130539 326.618561,150.594498 328.017273,147.174515 
	C328.455566,147.128860 328.893860,147.083206 329.681305,147.505569 
	C332.552246,150.788498 338.097931,150.897369 341.017151,148.189301 
	C353.226288,149.686813 365.623016,150.328598 377.585693,152.950577 
	C387.287476,155.076996 397.108826,158.479935 405.641998,163.441132 
	C410.865051,166.477829 417.382507,167.067123 421.749481,172.534607 
	C424.500885,175.979370 430.385529,176.766174 434.503571,179.326141 
	C437.544678,181.216614 440.235138,183.833664 442.664429,186.506363 
	C446.034119,190.213654 448.899261,194.272552 453.660950,196.596329 
	C455.662598,197.573135 457.197418,199.838562 458.520782,201.803513 
	C461.184662,205.759079 463.551971,209.914062 466.057159,213.977188 
	C466.482391,214.666809 466.862671,215.461594 467.471130,215.948776 
	C473.377441,220.677750 475.585480,227.735260 479.302307,233.902557 
	C484.518494,242.557648 487.529205,252.092255 491.217346,261.260895 
	C494.540649,269.522552 495.466187,278.819580 496.889160,287.749207 
	C497.790314,293.404327 497.665192,299.222931 497.874573,305.818542 
	C497.542633,311.136261 497.336487,315.603729 497.097717,320.517517 
	C497.367218,324.308167 497.669312,327.652466 497.971375,330.996796 
	C496.915680,340.104523 496.508392,349.351288 494.595306,358.275208 
	C493.113586,365.186981 489.868469,371.743500 487.189941,378.370117 
	C483.948425,386.389526 480.878845,394.519745 476.974518,402.216309 
	C474.069672,407.942566 469.036255,412.672760 466.597778,418.531982 
	C463.063171,427.025116 456.184937,432.683319 450.830414,439.559814 
	C447.333649,444.050476 444.312714,449.000916 438.774780,452.281616 
	C433.198853,455.584839 429.355774,461.746063 424.551910,466.449158 
	C422.278076,468.675293 419.804626,471.084442 416.948059,472.248810 
	C410.772675,474.765930 405.907379,478.976837 400.787628,482.958282 
	C399.252960,484.151703 397.082001,484.500763 395.457733,485.610199 
	C391.411407,488.374084 387.673553,491.618103 383.501617,494.160309 
	C380.239014,496.148346 376.545593,497.456726 372.982971,498.919495 
	C365.150482,502.135345 356.779755,504.415161 349.582611,508.684937 
	C343.829407,512.098022 337.229675,512.351929 331.793671,515.380554 
	C324.318451,519.545288 316.063385,520.561829 308.209473,523.074463 
	C300.423096,525.565552 292.348145,527.167664 284.377380,529.065735 
	C276.526459,530.935181 268.402710,532.006042 260.862183,534.716736 
	C255.340378,536.701721 250.881836,534.994385 246.093643,533.569946 
	C239.216446,531.524109 232.363831,529.373535 225.585648,527.022705 
	C217.607056,524.255615 209.650208,521.399597 201.809372,518.268066 
	C191.924881,514.320312 182.096252,510.214050 172.377365,505.876343 
	C164.627960,502.417694 156.942627,498.762085 149.480911,494.727722 
	C142.479218,490.942139 135.217178,487.258606 129.146210,482.230408 
	C122.090187,476.386383 114.305779,471.775696 107.002411,466.427551 
	C101.971359,462.743378 98.416191,457.086914 93.972519,452.535400 
	C92.289696,450.811737 89.601219,450.043610 87.999565,448.271851 
	C82.833839,442.557526 78.362968,436.164612 72.861076,430.818726 
	C67.389992,425.502838 63.513966,419.233246 59.591640,412.903320 
	C54.817425,405.198578 49.805325,397.611572 45.547878,389.626160 
	C42.481522,383.874786 40.347702,377.605347 38.039406,371.476044 
	C35.236481,364.033264 32.174278,356.628052 30.184576,348.957458 
	C28.472286,342.356323 28.131424,335.402100 27.140699,328.610321 
	C26.470125,324.013336 25.724207,319.427368 25.483990,314.404480 
	C26.309305,309.778259 26.819229,305.587524 26.914156,301.387451 
	C26.940369,300.227661 25.730484,299.039917 25.087757,297.865021 
	C25.765638,294.116882 26.372862,290.354279 27.136360,286.623657 
	C28.647577,279.239624 30.223158,271.868439 31.820009,264.502319 
	C32.318161,262.204376 32.915646,259.924194 33.563896,257.663452 
	C34.708096,253.673126 35.533554,249.528214 37.215271,245.771591 
	C39.203804,241.329605 42.015518,237.261642 44.351189,232.966705 
	C45.218529,231.371796 45.713970,229.578491 46.437889,227.901062 
	C50.203522,219.175583 57.857944,212.944992 62.140736,204.903046 
	C66.398262,196.908539 75.044441,194.329132 79.543114,186.732727 
	C82.274773,182.120087 89.261314,180.014221 94.360771,176.821136 
	C98.097321,174.481445 101.694206,171.814774 105.671982,169.987473 
	C112.408440,166.892899 118.445694,162.471558 125.982193,160.798996 
	C132.434692,159.367004 138.369751,155.604065 144.822144,154.170822 
	C153.575439,152.226532 162.587112,150.635590 171.517761,150.466492 
	C190.653320,150.104187 209.808746,150.710922 228.953247,151.069687 
	C230.296768,151.094879 232.670624,152.266953 232.724823,153.035507 
	C232.830780,154.538239 232.039993,156.570496 230.909943,157.614426 
	C225.657639,162.466385 219.963058,166.846939 214.799118,171.785538 
	C206.439194,179.780609 199.741180,189.046783 193.396469,198.778046 
	C188.830063,205.781815 184.986145,213.097626 180.667328,220.162720 
	C175.887924,227.981262 172.898804,236.157806 170.671860,244.878738 
	C169.613358,249.023849 167.570480,252.916199 165.991455,256.930084 
	C162.682068,265.342377 160.516403,273.968628 159.735535,283.049835 
	C159.284317,288.297119 156.873901,293.362854 156.289902,298.615326 
	C155.649963,304.370911 156.097626,310.247406 155.667511,316.707306 
	C155.168777,321.114716 154.908722,324.890991 155.021774,328.656097 
	C155.155624,333.113312 155.611328,337.560883 155.927536,342.012634 
z"/>
<path fill="#040404" opacity="1.000000" stroke="none" 
	d="
M407.026489,33.845570 
	C416.411621,34.563828 425.883270,34.724995 435.156128,36.165852 
	C443.489777,37.460770 451.780701,39.648819 459.766602,42.387299 
	C467.535187,45.051262 475.273010,48.280075 482.288513,52.487705 
	C486.518463,55.024681 491.060181,56.109936 495.285767,58.168728 
	C498.968353,59.962978 502.025696,63.005180 505.503601,65.274879 
	C506.662628,66.031281 508.268188,66.103424 510.225311,66.641006 
	C509.210846,68.614700 508.759857,70.960640 507.348938,71.987114 
	C500.636505,76.870430 493.656525,81.385376 486.785553,86.051750 
	C484.329041,87.720085 481.735168,89.242760 479.505829,91.179367 
	C468.691345,100.573761 455.487640,104.579979 442.022736,107.973740 
	C434.255188,109.931496 426.494324,112.613503 418.599884,113.194199 
	C408.630310,113.927544 398.527039,112.872704 388.483063,112.539772 
	C386.494171,112.473854 384.516357,112.116631 382.527191,112.009140 
	C373.643494,111.529037 365.278595,109.150879 357.114044,105.665695 
	C352.518982,103.704201 347.510406,102.719528 342.889374,100.808235 
	C339.437653,99.380592 336.240906,97.281296 333.054016,95.284187 
	C329.912201,93.315353 326.887177,91.151161 323.896027,88.956696 
	C323.079010,88.357315 321.857544,86.961174 322.055939,86.589493 
	C322.564697,85.636322 323.672455,84.626701 324.708282,84.397835 
	C328.649139,83.527061 332.641357,82.849342 336.641113,82.291077 
	C358.431885,79.249664 380.349426,79.482414 402.229645,80.471992 
	C411.978027,80.912888 421.681763,82.741905 431.353271,84.272629 
	C434.956360,84.842896 438.507477,86.117760 441.910187,87.496193 
	C448.238556,90.059807 454.203094,90.288345 459.967590,86.073776 
	C462.337860,84.340797 463.126007,76.116699 460.349884,73.080093 
	C458.377441,70.922646 455.389893,69.246086 452.547150,68.433891 
	C448.021179,67.140808 443.204376,66.908295 438.572479,65.933174 
	C432.177124,64.586784 425.839386,62.966656 419.476440,61.465946 
	C419.152588,61.389565 418.826630,61.308929 418.497009,61.271969 
	C411.715027,60.511555 404.948334,59.521782 398.145874,59.061054 
	C389.579803,58.480877 380.983917,58.059704 372.401703,58.073318 
	C362.818665,58.088524 353.227081,58.513474 343.659821,59.097458 
	C340.829010,59.270248 338.096161,60.710308 335.267914,61.344223 
	C331.397278,62.211773 327.478394,62.864056 323.580170,63.608601 
	C323.454865,63.213337 323.329529,62.818073 323.204224,62.422810 
	C326.007324,60.597794 328.880676,58.870274 331.591553,56.917259 
	C333.807556,55.320808 335.684509,53.229443 337.970367,51.759686 
	C341.822845,49.282604 346.015137,47.327301 349.826904,44.794865 
	C362.982269,36.054848 377.703522,33.795273 393.974792,33.978935 
	C398.935089,33.943401 402.980804,33.894485 407.026489,33.845570 
z"/>
<path fill="#040404" opacity="1.000000" stroke="none" 
	d="
M275.830658,123.883461 
	C275.889404,118.553162 276.027069,113.222054 275.972534,107.892914 
	C275.946503,105.352158 276.391754,103.900894 279.271301,102.828629 
	C283.881714,101.111839 288.414429,98.797661 292.421722,95.950310 
	C297.226349,92.536438 298.962341,97.668861 301.995911,98.823936 
	C304.110199,99.628983 305.385162,102.404732 307.417206,103.701187 
	C314.928741,108.493584 322.465942,113.278053 330.259521,117.584099 
	C334.966919,120.185013 340.164886,121.897972 345.576233,124.462540 
	C343.314880,125.303314 340.619751,125.691467 337.924652,126.079605 
	C329.304260,126.181587 320.652161,125.856705 312.071472,126.493675 
	C301.363739,127.288544 290.714813,128.875687 279.166382,130.119598 
	C273.675354,129.538956 277.261353,125.720886 275.830658,123.883461 
z"/>
<path fill="#CBCBCB" opacity="1.000000" stroke="none" 
	d="
M156.339539,341.941498 
	C155.611328,337.560883 155.155624,333.113312 155.021774,328.656097 
	C154.908722,324.890991 155.168777,321.114716 155.671982,317.176361 
	C156.722061,317.760040 157.906113,318.500214 157.920944,319.263092 
	C158.055099,326.162415 158.016693,333.066193 157.921066,339.967133 
	C157.912201,340.606842 157.159103,341.236206 156.339539,341.941498 
z"/>
<path fill="#C0C0C0" opacity="1.000000" stroke="none" 
	d="
M25.038313,298.290741 
	C25.730484,299.039917 26.940369,300.227661 26.914156,301.387451 
	C26.819229,305.587524 26.309305,309.778259 25.524204,313.997223 
	C25.057901,308.920105 25.023384,303.818298 25.038313,298.290741 
z"/>
<path fill="#323232" opacity="1.000000" stroke="none" 
	d="
M497.130341,320.071167 
	C497.336487,315.603729 497.542633,311.136261 497.912720,306.276733 
	C498.718109,308.176270 499.584045,310.434326 499.933563,312.769684 
	C500.240417,314.820190 499.968506,316.957245 499.552124,319.521790 
	C498.478180,320.015411 497.804260,320.043304 497.130341,320.071167 
z"/>
<path fill="#747474" opacity="1.000000" stroke="none" 
	d="
M338.169128,126.368950 
	C340.619751,125.691467 343.314880,125.303314 345.970764,124.504623 
	C348.326447,124.830299 350.721375,125.566513 353.116302,126.302727 
	C353.021149,126.993675 352.926025,127.684624 352.830872,128.375565 
	C348.025116,127.803146 343.219360,127.230721 338.169128,126.368950 
z"/>
<path fill="#DBDBDB" opacity="1.000000" stroke="none" 
	d="
M406.989227,33.442989 
	C402.980804,33.894485 398.935089,33.943401 394.430176,33.910988 
	C394.029602,33.346340 393.912201,32.714390 394.174835,32.403316 
	C396.182251,30.025723 404.701050,30.483538 406.989227,33.442989 
z"/>
<path fill="#E1E1E1" opacity="1.000000" stroke="none" 
	d="
M253.544098,116.985435 
	C253.099808,113.309624 253.057678,109.599495 253.095123,105.432732 
	C253.805588,105.092583 254.671600,104.986259 255.028290,105.362617 
	C256.980988,107.422852 256.215485,114.956139 253.544098,116.985435 
z"/>
<path fill="#727272" opacity="1.000000" stroke="none" 
	d="
M312.691711,147.912735 
	C309.139099,148.645401 305.205597,149.185532 301.128876,149.309082 
	C304.445953,145.461243 308.417816,146.971451 312.691711,147.912735 
z"/>
<path fill="#141414" opacity="1.000000" stroke="none" 
	d="
M340.630829,148.012970 
	C338.097931,150.897369 332.552246,150.788498 330.006470,147.574066 
	C333.403168,147.395233 336.823822,147.615936 340.630829,148.012970 
z"/>
<path fill="#4F4F4F" opacity="1.000000" stroke="none" 
	d="
M497.097717,320.517517 
	C497.804260,320.043304 498.478180,320.015411 499.490234,319.977753 
	C499.455353,323.538513 499.082336,327.109039 498.340363,330.838196 
	C497.669312,327.652466 497.367218,324.308167 497.097717,320.517517 
z"/>
<path fill="#141414" opacity="1.000000" stroke="none" 
	d="
M327.576324,147.091629 
	C326.618561,150.594498 323.013855,151.130539 318.152588,148.263901 
	C321.025482,147.611877 324.080414,147.310303 327.576324,147.091629 
z"/>
<path fill="#161616" opacity="1.000000" stroke="none" 
	d="
M252.925842,102.581192 
	C247.319321,101.009056 250.581818,96.972992 250.868317,93.289825 
	C251.696655,95.992340 252.349167,99.069046 252.925842,102.581192 
z"/>
<path fill="#8B8B8B" opacity="1.000000" stroke="none" 
	d="
M275.454651,124.002853 
	C277.261353,125.720886 273.675354,129.538956 278.727173,130.178833 
	C279.520844,134.760162 276.479980,132.556992 273.636017,132.993851 
	C274.174744,129.680923 274.626709,126.901588 275.454651,124.002853 
z"/>
<path fill="#202020" opacity="1.000000" stroke="none" 
	d="
M178.095184,339.417450 
	C181.921570,340.517273 182.288757,345.145294 178.493530,347.983398 
	C178.066452,345.298523 178.038345,342.580780 178.095184,339.417450 
z"/>
<path fill="#141414" opacity="1.000000" stroke="none" 
	d="
M251.418793,126.859558 
	C249.640060,124.139465 248.551575,121.301064 252.435135,119.004837 
	C252.476608,121.555183 252.127258,124.127815 251.418793,126.859558 
z"/>
</svg>