<?xml version="1.0" standalone="no"?>
<!DOCTYPE svg PUBLIC "-//W3C//DTD SVG 20010904//EN"
 "http://www.w3.org/TR/2001/REC-SVG-20010904/DTD/svg10.dtd">
<svg version="1.0" xmlns="http://www.w3.org/2000/svg"
 width="540.000000pt" height="580.000000pt" viewBox="0 0 540.000000 580.000000"
 preserveAspectRatio="xMidYMid meet">

<g transform="translate(0.000000,580.000000) scale(0.100000,-0.100000)"
fill="#000000" stroke="none">
<path d="M0 2900 l0 -2900 2700 0 2700 0 0 2900 0 2900 -1670 0 c-1107 0
-1670 -3 -1670 -10 0 -5 11 -10 25 -10 16 0 25 -6 25 -15 0 -9 9 -15 25 -15
14 0 25 -4 25 -10 0 -5 7 -10 15 -10 8 0 15 -6 15 -14 0 -15 21 -26 51 -26 10
0 19 -4 19 -10 0 -5 7 -10 15 -10 8 0 15 -5 15 -11 0 -14 25 -39 39 -39 6 0
11 -7 11 -15 0 -8 5 -15 11 -15 14 0 39 -25 39 -39 0 -6 6 -11 13 -11 7 0 19
-9 27 -20 8 -11 20 -20 27 -20 7 0 13 -7 13 -15 0 -8 5 -15 10 -15 6 0 10 -9
10 -20 0 -11 7 -20 15 -20 8 0 15 -4 15 -10 0 -5 7 -10 15 -10 9 0 15 -9 15
-21 0 -22 22 -49 39 -49 6 0 11 -11 11 -25 0 -14 5 -25 10 -25 6 0 10 -11 10
-25 0 -16 6 -25 15 -25 10 0 15 -10 15 -30 0 -16 5 -30 10 -30 6 0 10 -16 10
-35 0 -24 5 -35 15 -35 11 0 15 -11 15 -40 0 -29 4 -40 15 -40 8 0 15 -9 15
-20 0 -11 5 -20 10 -20 6 0 10 5 10 10 0 6 11 10 25 10 14 0 25 5 25 10 0 6
11 10 25 10 16 0 25 6 25 15 0 8 7 15 15 15 9 0 15 9 15 25 0 16 6 25 15 25 8
0 15 9 15 20 0 11 5 20 10 20 6 0 10 7 10 15 0 8 7 15 15 15 9 0 15 9 15 24 0
17 7 27 22 32 31 9 48 29 48 53 0 12 6 21 15 21 8 0 15 7 15 15 0 8 5 15 11
15 14 0 39 25 39 39 0 6 6 11 13 11 7 0 19 9 27 20 8 11 25 20 37 20 13 0 23
6 23 14 0 8 14 17 30 21 17 4 30 13 30 21 0 8 10 14 23 14 12 0 29 9 37 20 8
11 25 20 37 20 14 0 23 6 23 15 0 10 10 15 30 15 17 0 30 5 30 10 0 6 16 10
35 10 24 0 35 5 35 15 0 9 9 15 25 15 14 0 25 5 25 10 0 6 25 10 55 10 42 0
55 3 55 15 0 12 14 15 65 15 37 0 65 4 65 10 0 6 75 10 205 10 130 0 205 -4
205 -10 0 -6 32 -10 75 -10 60 0 75 -3 75 -15 0 -11 12 -15 50 -15 28 0 50 -4
50 -10 0 -5 18 -10 40 -10 29 0 40 -4 40 -15 0 -11 11 -15 40 -15 22 0 40 -4
40 -10 0 -5 18 -10 40 -10 29 0 40 -4 40 -15 0 -9 9 -15 25 -15 14 0 25 -4 25
-10 0 -5 11 -10 25 -10 14 0 25 -4 25 -10 0 -5 11 -10 25 -10 15 0 25 -6 25
-14 0 -9 17 -16 50 -21 33 -5 50 -12 50 -21 0 -8 10 -14 25 -14 14 0 25 -4 25
-10 0 -5 12 -10 26 -10 26 0 54 -20 54 -39 0 -6 11 -11 25 -11 14 0 25 -4 25
-10 0 -5 11 -10 25 -10 16 0 25 -6 25 -15 0 -8 7 -15 15 -15 8 0 15 -4 15 -10
0 -5 11 -10 25 -10 16 0 25 -6 25 -15 0 -8 7 -15 15 -15 8 0 15 -4 15 -10 0
-5 11 -12 25 -16 14 -3 25 -12 25 -20 0 -8 5 -14 10 -14 6 0 10 -20 10 -45 0
-25 -4 -45 -10 -45 -5 0 -10 -11 -10 -25 0 -16 -6 -25 -15 -25 -8 0 -15 -5
-15 -11 0 -12 -25 -39 -37 -39 -5 0 -15 -9 -23 -20 -8 -11 -20 -20 -27 -20 -7
0 -13 -4 -13 -10 0 -5 -7 -10 -15 -10 -8 0 -15 -5 -15 -11 0 -14 -25 -39 -39
-39 -6 0 -11 -5 -11 -11 0 -11 -25 -39 -35 -39 -10 0 -35 -28 -35 -39 0 -6 -7
-11 -15 -11 -8 0 -15 -4 -15 -10 0 -5 -11 -10 -25 -10 -14 0 -25 -4 -25 -10 0
-5 -7 -10 -15 -10 -8 0 -15 -4 -15 -10 0 -5 -11 -10 -25 -10 -14 0 -25 -5 -25
-11 0 -18 -27 -39 -50 -39 -23 0 -50 -21 -50 -39 0 -6 -11 -11 -25 -11 -14 0
-25 -4 -25 -10 0 -5 -11 -10 -25 -10 -16 0 -25 -6 -25 -15 0 -10 -10 -15 -30
-15 -16 0 -30 -4 -30 -10 0 -5 -16 -10 -35 -10 -19 0 -35 -4 -35 -10 0 -5 -11
-10 -25 -10 -14 0 -25 -4 -25 -10 0 -5 -25 -10 -55 -10 -30 0 -55 -4 -55 -10
0 -5 -22 -10 -50 -10 -38 0 -50 -4 -50 -15 0 -12 -17 -15 -90 -15 -53 0 -90
-4 -90 -10 0 -6 -42 -10 -105 -10 -87 0 -105 -3 -105 -15 0 -11 11 -15 40 -15
22 0 40 -4 40 -10 0 -5 11 -10 25 -10 14 0 25 -4 25 -10 0 -5 11 -10 25 -10
16 0 25 -6 25 -15 0 -10 10 -15 30 -15 17 0 30 -4 30 -10 0 -5 11 -10 25 -10
16 0 25 -6 25 -15 0 -9 9 -15 24 -15 14 0 31 -7 40 -15 8 -8 26 -15 40 -15 14
0 26 -5 26 -11 0 -17 27 -39 49 -39 12 0 21 -6 21 -15 0 -8 5 -15 11 -15 14 0
39 -25 39 -39 0 -6 7 -11 15 -11 8 0 15 -4 15 -10 0 -5 11 -10 25 -10 14 0 25
-4 25 -10 0 -5 7 -10 15 -10 8 0 15 -7 15 -15 0 -8 11 -17 25 -21 14 -3 25
-12 25 -20 0 -8 5 -14 10 -14 6 0 10 -9 10 -20 0 -11 7 -20 15 -20 8 0 15 -7
15 -15 0 -8 5 -15 11 -15 14 0 39 -25 39 -39 0 -6 5 -11 11 -11 17 0 39 -27
39 -48 0 -13 9 -22 25 -26 18 -5 25 -13 25 -31 0 -16 6 -25 15 -25 8 0 15 -7
15 -15 0 -8 7 -15 15 -15 8 0 15 -9 15 -20 0 -11 5 -20 10 -20 6 0 10 -11 10
-25 0 -16 6 -25 15 -25 8 0 15 -7 15 -15 0 -8 5 -15 10 -15 6 0 10 -9 10 -20
0 -11 7 -20 15 -20 8 0 15 -9 15 -20 0 -11 5 -20 10 -20 6 0 10 -18 10 -40 0
-29 4 -40 15 -40 8 0 15 -9 15 -20 0 -11 7 -20 15 -20 10 0 15 -11 15 -35 0
-19 5 -35 10 -35 6 0 10 -16 10 -35 0 -24 5 -35 15 -35 10 0 15 -11 15 -35 0
-19 5 -35 10 -35 6 0 10 -20 10 -45 0 -33 4 -45 15 -45 12 0 15 -14 15 -70 0
-40 4 -70 10 -70 6 0 10 -47 10 -120 0 -100 3 -120 15 -120 12 0 15 -18 15
-100 0 -82 -3 -100 -15 -100 -12 0 -15 -19 -15 -115 0 -70 -4 -115 -10 -115
-6 0 -10 -27 -10 -60 0 -47 -3 -60 -15 -60 -12 0 -15 -13 -15 -60 0 -33 -4
-60 -10 -60 -5 0 -10 -16 -10 -35 0 -24 -5 -35 -15 -35 -10 0 -15 -10 -15 -30
0 -16 -4 -30 -10 -30 -5 0 -10 -16 -10 -35 0 -24 -5 -35 -15 -35 -11 0 -15
-11 -15 -40 0 -29 -4 -40 -15 -40 -8 0 -15 -9 -15 -20 0 -11 -4 -20 -10 -20
-5 0 -10 -9 -10 -20 0 -11 -7 -20 -15 -20 -9 0 -15 -9 -15 -25 0 -14 -4 -25
-10 -25 -5 0 -10 -11 -10 -25 0 -16 -6 -25 -15 -25 -9 0 -15 -9 -15 -25 0 -14
-4 -25 -10 -25 -5 0 -10 -11 -10 -25 0 -16 -6 -25 -15 -25 -8 0 -15 -7 -15
-15 0 -8 -7 -15 -15 -15 -8 0 -15 -7 -15 -15 0 -8 -4 -15 -10 -15 -5 0 -10
-11 -10 -25 0 -14 -5 -25 -11 -25 -17 0 -39 -27 -39 -49 0 -12 -5 -21 -11 -21
-6 0 -17 -6 -25 -14 -8 -8 -14 -19 -14 -25 0 -6 -7 -11 -15 -11 -8 0 -15 -9
-15 -20 0 -11 -6 -20 -13 -20 -7 0 -19 -9 -27 -20 -8 -11 -20 -20 -27 -20 -7
0 -13 -5 -13 -11 0 -14 -25 -39 -39 -39 -6 0 -11 -5 -11 -11 0 -14 -25 -39
-39 -39 -6 0 -11 -7 -11 -15 0 -8 -7 -15 -15 -15 -8 0 -15 -4 -15 -10 0 -5
-11 -12 -25 -16 -14 -3 -25 -11 -25 -16 0 -13 -26 -38 -39 -38 -6 0 -11 -5
-11 -11 0 -14 -25 -39 -39 -39 -6 0 -11 -4 -11 -10 0 -5 -7 -10 -15 -10 -8 0
-15 -5 -15 -11 0 -17 -27 -39 -49 -39 -12 0 -21 -6 -21 -15 0 -8 -6 -15 -13
-15 -7 0 -19 -9 -27 -20 -8 -11 -26 -20 -40 -20 -14 0 -32 -9 -40 -20 -8 -11
-25 -20 -37 -20 -14 0 -23 -6 -23 -15 0 -8 -7 -15 -15 -15 -8 0 -15 -4 -15
-10 0 -5 -11 -10 -25 -10 -16 0 -25 -6 -25 -15 0 -8 -7 -15 -15 -15 -8 0 -15
-4 -15 -10 0 -5 -11 -10 -25 -10 -14 0 -25 -4 -25 -10 0 -5 -11 -10 -25 -10
-16 0 -25 -6 -25 -15 0 -9 -9 -15 -25 -15 -14 0 -25 -4 -25 -10 0 -5 -11 -10
-25 -10 -14 0 -25 -4 -25 -10 0 -5 -11 -10 -25 -10 -14 0 -25 -4 -25 -10 0 -5
-11 -10 -25 -10 -16 0 -25 -6 -25 -15 0 -10 -10 -15 -30 -15 -16 0 -30 -4 -30
-10 0 -5 -11 -10 -25 -10 -14 0 -25 -4 -25 -10 0 -5 -16 -10 -35 -10 -24 0
-35 -5 -35 -15 0 -10 -10 -15 -30 -15 -16 0 -30 -4 -30 -10 0 -5 -16 -10 -35
-10 -24 0 -35 -5 -35 -15 0 -11 -11 -15 -40 -15 -22 0 -40 -4 -40 -10 0 -5
-18 -10 -40 -10 -22 0 -40 -4 -40 -10 0 -5 -16 -10 -35 -10 -19 0 -35 -4 -35
-10 0 -5 -18 -10 -40 -10 -22 0 -40 -4 -40 -10 0 -5 -22 -10 -50 -10 -38 0
-50 -4 -50 -15 0 -12 -13 -15 -55 -15 -30 0 -55 -4 -55 -10 0 -5 -22 -10 -50
-10 -38 0 -50 -4 -50 -15 0 -18 -39 -20 -262 -16 -36 1 -48 5 -48 16 0 11 -11
15 -40 15 -22 0 -40 5 -40 10 0 6 -16 10 -35 10 -24 0 -35 5 -35 15 0 11 -11
15 -40 15 -22 0 -40 5 -40 10 0 6 -11 10 -25 10 -14 0 -25 5 -25 10 0 6 -18
10 -40 10 -22 0 -40 5 -40 10 0 6 -11 10 -25 10 -14 0 -25 5 -25 10 0 6 -18
10 -40 10 -29 0 -40 4 -40 15 0 9 -9 15 -25 15 -14 0 -25 5 -25 10 0 6 -11 10
-25 10 -16 0 -25 6 -25 15 0 9 -9 15 -25 15 -14 0 -25 5 -25 10 0 6 -11 10
-25 10 -14 0 -25 5 -25 10 0 6 -11 10 -25 10 -16 0 -25 6 -25 15 0 10 -10 15
-30 15 -16 0 -30 5 -30 10 0 6 -11 10 -25 10 -14 0 -25 5 -25 10 0 6 -9 10
-21 10 -22 0 -49 22 -49 39 0 6 -13 11 -30 11 -16 0 -30 5 -30 10 0 6 -9 10
-21 10 -22 0 -49 22 -49 39 0 6 -11 11 -25 11 -14 0 -25 5 -25 10 0 6 -7 10
-15 10 -8 0 -15 7 -15 15 0 9 -9 15 -25 15 -14 0 -25 5 -25 10 0 6 -7 10 -15
10 -8 0 -15 5 -15 10 0 6 -10 10 -23 10 -12 0 -29 9 -37 20 -8 11 -20 20 -27
20 -7 0 -13 7 -13 15 0 8 -7 15 -15 15 -8 0 -15 5 -15 10 0 6 -11 10 -25 10
-14 0 -25 5 -25 11 0 11 -25 39 -35 39 -10 0 -35 28 -35 39 0 6 -7 11 -15 11
-8 0 -15 5 -15 10 0 6 -7 10 -15 10 -8 0 -15 6 -15 14 0 8 -10 18 -22 22 -26
8 -48 28 -48 43 0 6 -5 11 -11 11 -14 0 -39 25 -39 39 0 6 -7 11 -15 11 -8 0
-15 5 -15 10 0 6 -7 10 -15 10 -8 0 -15 5 -15 11 0 11 -25 39 -35 39 -10 0
-35 28 -35 39 0 6 -7 11 -15 11 -8 0 -15 7 -15 16 0 18 -23 44 -39 44 -6 0
-11 5 -11 10 0 6 -7 10 -15 10 -9 0 -15 9 -15 25 0 14 -4 25 -10 25 -5 0 -10
7 -10 15 0 8 -7 15 -15 15 -9 0 -15 9 -15 21 0 22 -22 49 -39 49 -6 0 -11 9
-11 20 0 11 -4 20 -10 20 -5 0 -10 11 -10 25 0 16 -6 25 -15 25 -8 0 -15 5
-15 10 0 6 -7 10 -15 10 -9 0 -15 9 -15 25 0 14 -4 25 -10 25 -5 0 -10 11 -10
25 0 16 -6 25 -15 25 -8 0 -15 9 -15 20 0 11 -4 20 -10 20 -5 0 -10 9 -10 20
0 11 -7 20 -15 20 -11 0 -15 11 -15 40 0 22 -4 40 -10 40 -5 0 -10 9 -10 20 0
11 -7 20 -15 20 -10 0 -15 11 -15 35 0 24 -5 35 -15 35 -10 0 -15 11 -15 35 0
19 -4 35 -10 35 -5 0 -10 16 -10 35 0 24 -5 35 -15 35 -11 0 -15 12 -15 45 0
25 -4 45 -10 45 -6 0 -10 27 -10 60 0 47 -3 60 -15 60 -12 0 -15 16 -15 80 0
47 -4 80 -10 80 -6 0 -10 83 -10 230 0 147 4 230 10 230 6 0 10 35 10 85 0 69
3 85 15 85 11 0 15 12 15 45 0 25 5 45 10 45 6 0 10 20 10 45 0 33 4 45 15 45
10 0 15 11 15 35 0 19 5 35 10 35 6 0 10 16 10 35 0 24 5 35 15 35 9 0 15 9
15 25 0 16 6 25 15 25 10 0 15 11 15 35 0 19 5 35 10 35 6 0 10 9 10 20 0 11
7 20 15 20 9 0 15 9 15 21 0 22 22 49 39 49 6 0 11 11 11 25 0 14 5 25 10 25
6 0 10 11 10 25 0 16 6 25 15 25 8 0 15 5 15 10 0 6 7 10 15 10 8 0 15 7 15
16 0 18 23 44 39 44 6 0 11 7 11 15 0 8 5 15 10 15 6 0 10 11 10 25 0 14 5 25
11 25 14 0 39 25 39 39 0 6 7 11 15 11 8 0 15 5 15 10 0 6 5 10 11 10 13 0 39
25 39 38 0 5 11 13 25 16 14 4 25 13 25 21 0 8 6 15 13 15 7 0 19 9 27 20 8
11 20 20 27 20 7 0 13 7 13 15 0 9 9 15 25 15 14 0 25 5 25 10 0 6 7 10 15 10
8 0 15 7 15 15 0 9 9 15 21 15 22 0 49 22 49 39 0 6 12 11 26 11 14 0 32 7 40
15 9 8 26 15 40 15 15 0 24 6 24 15 0 9 9 15 25 15 14 0 25 5 25 10 0 6 14 10
30 10 20 0 30 5 30 15 0 10 11 15 35 15 19 0 35 5 35 10 0 6 11 10 25 10 14 0
25 5 25 10 0 6 25 10 55 10 42 0 55 3 55 15 0 10 11 15 35 15 19 0 35 5 35 10
0 6 28 10 65 10 51 0 65 3 65 15 0 12 16 15 80 15 47 0 80 4 80 10 0 6 83 10
230 10 147 0 230 -4 230 -10 0 -6 42 -10 105 -10 87 0 105 -3 105 -15 0 -12
15 -15 75 -15 l75 0 0 220 c0 189 -2 220 -15 220 -11 0 -15 12 -15 45 0 25 -4
45 -10 45 -5 0 -10 16 -10 35 0 24 -5 35 -15 35 -10 0 -15 11 -15 35 0 19 -4
35 -10 35 -5 0 -10 11 -10 25 0 16 -6 25 -15 25 -8 0 -15 7 -15 16 0 18 -23
44 -39 44 -6 0 -11 11 -11 25 0 16 -6 25 -15 25 -8 0 -15 5 -15 11 0 14 -25
39 -39 39 -6 0 -11 9 -11 21 0 22 -22 49 -39 49 -6 0 -11 6 -11 14 0 16 -21
26 -56 26 -13 0 -24 5 -24 11 0 11 -25 39 -35 39 -10 0 -35 28 -35 39 0 6 -11
11 -25 11 -14 0 -25 5 -25 10 0 6 -7 10 -15 10 -8 0 -15 7 -15 15 0 9 -9 15
-25 15 -20 0 -25 5 -25 25 0 16 -6 25 -15 25 -10 0 -15 10 -15 30 0 20 5 30
15 30 9 0 15 9 15 25 0 20 5 25 25 25 14 0 25 5 25 10 0 7 -337 10 -990 10
l-990 0 0 -2900z"/>
<path d="M3748 5463 c-51 -3 -68 -8 -68 -18 0 -11 -12 -15 -40 -15 -22 0 -40
-4 -40 -10 0 -5 -11 -10 -25 -10 -14 0 -25 -4 -25 -10 0 -5 -11 -10 -25 -10
-16 0 -25 -6 -25 -15 0 -9 -9 -15 -25 -15 -14 0 -25 -4 -25 -10 0 -5 -7 -10
-15 -10 -8 0 -15 -7 -15 -15 0 -9 -9 -15 -25 -15 -14 0 -25 -4 -25 -10 0 -5
-7 -10 -15 -10 -8 0 -15 -5 -15 -11 0 -15 -22 -35 -48 -43 -12 -4 -22 -14 -22
-22 0 -8 -7 -14 -15 -14 -8 0 -15 -4 -15 -10 0 -5 23 -10 50 -10 28 0 50 5 50
10 0 6 37 10 90 10 73 0 90 3 90 15 0 13 33 15 235 15 202 0 235 -2 235 -15 0
-12 18 -15 100 -15 60 0 100 -4 100 -10 0 -6 33 -10 80 -10 64 0 80 -3 80 -15
0 -11 12 -15 50 -15 28 0 50 -4 50 -10 0 -5 18 -10 40 -10 22 0 40 -4 40 -10
0 -5 11 -10 25 -10 14 0 25 -5 25 -11 0 -14 25 -39 39 -39 6 0 11 -20 11 -45
0 -25 -5 -45 -11 -45 -14 0 -39 -25 -39 -39 0 -7 -30 -11 -80 -11 -64 0 -80 3
-80 15 0 11 -12 15 -50 15 -27 0 -50 5 -50 10 0 6 -28 10 -65 10 -37 0 -65 4
-65 10 0 6 -32 10 -75 10 -43 0 -75 4 -75 10 0 6 -97 10 -270 10 -173 0 -270
-4 -270 -10 0 -6 -33 -10 -80 -10 -47 0 -80 -4 -80 -10 0 -6 -28 -10 -65 -10
-63 0 -65 -1 -65 -25 0 -16 6 -25 15 -25 8 0 15 -4 15 -10 0 -5 11 -10 25 -10
16 0 25 -6 25 -15 0 -8 7 -15 15 -15 8 0 15 -4 15 -10 0 -5 9 -10 21 -10 22 0
49 -22 49 -39 0 -6 14 -11 30 -11 17 0 30 -4 30 -10 0 -5 11 -10 25 -10 14 0
25 -4 25 -10 0 -5 16 -10 35 -10 19 0 35 -4 35 -10 0 -5 14 -10 30 -10 20 0
30 -5 30 -15 0 -11 12 -15 50 -15 28 0 50 -4 50 -10 0 -6 32 -10 75 -10 43 0
75 -4 75 -10 0 -6 55 -10 145 -10 90 0 145 4 145 10 0 6 32 10 75 10 43 0 75
4 75 10 0 6 23 10 50 10 38 0 50 4 50 15 0 9 9 15 25 15 14 0 25 5 25 10 0 6
18 10 40 10 22 0 40 5 40 10 0 6 11 10 25 10 14 0 25 5 25 10 0 6 11 10 25 10
16 0 25 6 25 15 0 10 10 15 28 15 16 0 34 8 42 20 8 11 25 20 37 20 14 0 23 6
23 15 0 8 7 15 15 15 8 0 15 5 15 10 0 6 11 10 25 10 16 0 25 6 25 15 0 8 6
15 13 15 7 0 19 9 27 20 8 11 19 20 25 20 6 0 17 9 25 20 8 11 25 20 37 20 14
0 23 6 23 15 0 8 7 15 15 15 8 0 15 5 15 10 0 6 7 10 15 10 8 0 15 7 15 15 0
8 5 15 10 15 6 0 10 9 10 20 0 15 -7 20 -25 20 -16 0 -25 6 -25 15 0 8 -7 15
-15 15 -8 0 -15 5 -15 10 0 6 -11 10 -25 10 -16 0 -25 6 -25 15 0 9 -9 15 -24
15 -14 0 -31 7 -40 15 -8 8 -26 15 -40 15 -16 0 -26 6 -26 15 0 9 -9 15 -25
15 -14 0 -25 5 -25 10 0 6 -11 10 -25 10 -16 0 -25 6 -25 15 0 11 -11 15 -40
15 -22 0 -40 5 -40 10 0 6 -11 10 -25 10 -16 0 -25 6 -25 15 0 10 -11 15 -35
15 -19 0 -35 5 -35 10 0 6 -18 10 -40 10 -22 0 -40 5 -40 10 0 6 -18 10 -40
10 -27 0 -40 4 -40 13 0 11 -28 16 -112 20 -112 7 -379 6 -510 0z"/>
<path d="M2930 4860 c0 -5 -11 -10 -25 -10 -14 0 -25 -4 -25 -10 0 -5 -7 -10
-15 -10 -8 0 -15 -7 -15 -15 0 -9 -9 -15 -25 -15 -14 0 -25 -4 -25 -10 0 -5
-11 -10 -25 -10 l-25 0 0 -124 c0 -90 -3 -126 -12 -130 -10 -5 -10 -7 0 -12 6
-3 12 -12 12 -20 0 -8 7 -14 15 -14 8 0 15 7 15 15 0 11 12 15 50 15 28 0 50
5 50 10 0 6 42 10 105 10 63 0 105 4 105 10 0 6 67 10 180 10 113 0 180 -4
180 -10 0 -5 16 -10 35 -10 19 0 35 5 35 10 0 6 -11 10 -25 10 -14 0 -25 5
-25 10 0 6 -18 10 -40 10 -22 0 -40 5 -40 10 0 6 -11 10 -25 10 -16 0 -25 6
-25 15 0 9 -9 15 -21 15 -22 0 -49 22 -49 39 0 6 -13 11 -30 11 -16 0 -30 5
-30 10 0 6 -9 10 -21 10 -22 0 -49 22 -49 39 0 6 -7 11 -15 11 -8 0 -15 5 -15
10 0 6 -11 10 -25 10 -14 0 -25 5 -25 10 0 6 -5 10 -11 10 -14 0 -39 25 -39
39 0 6 -6 11 -13 11 -7 0 -19 9 -27 20 -15 21 -40 27 -40 10z"/>
<path d="M3030 4326 c0 -9 -26 -15 -97 -20 -54 -4 -99 -11 -101 -16 -2 -6 -15
-10 -28 -10 -15 0 -24 -6 -24 -15 0 -11 -11 -15 -40 -15 -22 0 -40 -4 -40 -10
0 -5 -7 -10 -15 -10 -8 0 -15 -7 -15 -15 0 -9 -9 -15 -25 -15 -14 0 -25 -4
-25 -10 0 -5 -11 -10 -25 -10 -14 0 -25 -5 -25 -11 0 -14 -25 -39 -39 -39 -6
0 -11 -4 -11 -10 0 -5 -11 -10 -25 -10 -15 0 -25 -6 -25 -14 0 -8 -11 -17 -25
-20 -14 -4 -25 -13 -25 -21 0 -8 -6 -15 -13 -15 -7 0 -19 -9 -27 -20 -8 -11
-20 -20 -27 -20 -7 0 -13 -7 -13 -15 0 -8 -5 -15 -11 -15 -14 0 -39 -25 -39
-39 0 -6 -5 -11 -11 -11 -17 0 -39 -27 -39 -48 0 -13 -9 -22 -25 -26 -18 -5
-25 -13 -25 -31 0 -16 -6 -25 -15 -25 -8 0 -15 -7 -15 -15 0 -8 -7 -15 -15
-15 -8 0 -15 -9 -15 -20 0 -11 -4 -20 -10 -20 -5 0 -10 -7 -10 -15 0 -8 -7
-15 -15 -15 -9 0 -15 -9 -15 -25 0 -14 -4 -25 -10 -25 -5 0 -10 -9 -10 -20 0
-11 -7 -20 -15 -20 -8 0 -15 -9 -15 -20 0 -11 -4 -20 -10 -20 -5 0 -10 -11
-10 -25 0 -16 -6 -25 -15 -25 -9 0 -15 -9 -15 -25 0 -16 -6 -25 -15 -25 -10 0
-15 -11 -15 -35 0 -19 -4 -35 -10 -35 -5 0 -10 -16 -10 -35 0 -24 -5 -35 -15
-35 -10 0 -15 -11 -15 -35 0 -19 -4 -35 -10 -35 -5 0 -10 -16 -10 -35 0 -24
-5 -35 -15 -35 -12 0 -15 -13 -15 -55 0 -30 -4 -55 -10 -55 -6 0 -10 -27 -10
-60 0 -47 -3 -60 -15 -60 -12 0 -15 -17 -15 -95 0 -78 -3 -95 -15 -95 -13 0
-15 -32 -15 -226 0 -182 -3 -228 -14 -240 -8 -8 -19 -14 -25 -14 -6 0 -11 -7
-11 -15 0 -11 -12 -15 -50 -15 -38 0 -50 4 -50 15 0 8 -5 15 -11 15 -14 0 -39
25 -39 39 0 6 -7 11 -15 11 -13 0 -15 27 -15 180 0 153 2 180 15 180 12 0 15
19 15 115 0 70 4 115 10 115 6 0 10 32 10 75 0 60 3 75 15 75 12 0 15 13 15
55 0 42 3 55 15 55 11 0 15 12 15 50 0 28 5 50 10 50 6 0 10 16 10 35 0 24 5
35 15 35 10 0 15 10 15 30 0 17 5 30 10 30 6 0 10 16 10 35 0 24 5 35 15 35 9
0 15 9 15 25 0 14 5 25 10 25 6 0 10 16 10 35 0 24 5 35 15 35 8 0 15 9 15 20
0 11 7 20 15 20 9 0 15 9 15 25 0 14 5 25 10 25 6 0 10 11 10 25 0 16 6 25 15
25 9 0 15 9 15 21 0 22 22 49 39 49 6 0 11 7 11 16 0 18 23 44 39 44 6 0 11
11 11 25 0 16 6 25 15 25 8 0 15 7 15 15 0 8 5 15 10 15 6 0 10 11 10 25 0 14
6 25 13 25 7 0 19 9 27 20 8 11 20 20 27 20 7 0 13 7 13 15 0 8 11 17 25 21
18 4 25 13 25 30 0 13 5 24 11 24 14 0 39 25 39 39 0 6 7 11 15 11 8 0 15 5
15 10 0 6 11 10 25 10 14 0 25 5 25 11 0 14 25 39 39 39 6 0 11 7 11 15 0 8 7
15 15 15 8 0 15 4 15 9 0 25 -840 26 -848 2 -2 -6 -28 -11 -58 -11 -41 0 -54
-4 -54 -15 0 -10 -11 -15 -35 -15 -19 0 -35 -4 -35 -10 0 -5 -11 -10 -25 -10
-16 0 -25 -6 -25 -15 0 -11 -11 -15 -40 -15 -22 0 -40 -4 -40 -10 0 -5 -11
-10 -25 -10 -16 0 -25 -6 -25 -15 0 -9 -9 -15 -25 -15 -14 0 -25 -4 -25 -10 0
-5 -12 -10 -26 -10 -25 0 -54 -20 -54 -38 0 -5 -18 -12 -40 -16 -26 -4 -40
-11 -40 -21 0 -9 -10 -15 -25 -15 -14 0 -25 -4 -25 -10 0 -5 -5 -10 -11 -10
-14 0 -39 -25 -39 -39 0 -6 -7 -11 -15 -11 -8 0 -15 -4 -15 -10 0 -5 -11 -10
-25 -10 -14 0 -25 -5 -25 -11 0 -14 -25 -39 -39 -39 -6 0 -11 -11 -11 -24 0
-17 -7 -26 -25 -30 -14 -4 -25 -13 -25 -21 0 -8 -5 -15 -11 -15 -14 0 -39 -25
-39 -39 0 -6 -7 -11 -15 -11 -8 0 -15 -9 -15 -20 0 -11 -4 -20 -10 -20 -5 0
-10 -7 -10 -15 0 -8 -7 -15 -15 -15 -9 0 -15 -9 -15 -25 0 -14 -5 -25 -11 -25
-16 0 -39 -26 -39 -44 0 -9 -7 -16 -15 -16 -9 0 -15 -9 -15 -25 0 -14 -4 -25
-10 -25 -5 0 -10 -11 -10 -25 0 -16 -6 -25 -15 -25 -8 0 -15 -9 -15 -20 0 -11
-4 -20 -10 -20 -5 0 -10 -16 -10 -35 0 -24 -5 -35 -15 -35 -10 0 -15 -11 -15
-35 0 -24 -5 -35 -15 -35 -10 0 -15 -11 -15 -35 0 -19 -4 -35 -10 -35 -5 0
-10 -20 -10 -45 0 -33 -4 -45 -15 -45 -12 0 -15 -14 -15 -70 0 -40 -4 -70 -10
-70 -6 0 -10 -97 -10 -270 0 -173 4 -270 10 -270 6 0 10 -28 10 -65 0 -51 3
-65 15 -65 11 0 15 -12 15 -50 0 -27 5 -50 10 -50 6 0 10 -13 10 -30 0 -20 5
-30 15 -30 11 0 15 -11 15 -40 0 -29 4 -40 15 -40 10 0 15 -11 15 -35 0 -19 5
-35 10 -35 6 0 10 -13 10 -30 0 -20 5 -30 15 -30 9 0 15 -9 15 -25 0 -14 5
-25 10 -25 6 0 10 -11 10 -25 0 -16 6 -25 15 -25 9 0 15 -9 15 -25 0 -14 5
-25 10 -25 6 0 10 -9 10 -20 0 -11 7 -20 15 -20 8 0 15 -9 15 -20 0 -11 7 -20
15 -20 9 0 15 -9 15 -25 0 -14 5 -25 10 -25 6 0 10 -7 10 -15 0 -8 7 -15 15
-15 8 0 15 -9 15 -20 0 -11 5 -20 10 -20 6 0 10 -7 10 -15 0 -8 7 -15 15 -15
9 0 15 -9 15 -25 0 -18 7 -26 25 -31 18 -4 25 -13 25 -30 0 -13 5 -24 11 -24
14 0 39 -25 39 -39 0 -6 5 -11 11 -11 17 0 39 -27 39 -49 0 -12 5 -21 11 -21
13 0 39 -25 39 -38 0 -6 14 -13 30 -17 16 -4 30 -11 30 -17 0 -11 25 -38 35
-38 10 0 35 -28 35 -39 0 -6 5 -11 11 -11 14 0 39 -25 39 -39 0 -6 7 -11 15
-11 8 0 15 -4 15 -10 0 -5 11 -10 25 -10 16 0 25 -6 25 -15 0 -8 7 -15 15 -15
8 0 15 -4 15 -10 0 -5 11 -12 25 -16 14 -3 25 -12 25 -20 0 -8 10 -14 25 -14
14 0 25 -4 25 -10 0 -5 7 -10 15 -10 8 0 15 -5 15 -11 0 -17 27 -39 49 -39 12
0 21 -4 21 -10 0 -5 7 -10 15 -10 8 0 15 -7 15 -15 0 -9 9 -15 25 -15 14 0 25
-4 25 -10 0 -5 7 -10 15 -10 8 0 15 -7 15 -15 0 -9 9 -15 23 -15 12 0 29 -9
37 -20 8 -11 25 -20 37 -20 13 0 23 -4 23 -10 0 -5 14 -10 30 -10 17 0 30 -4
30 -10 0 -5 11 -10 25 -10 16 0 25 -6 25 -15 0 -9 9 -15 25 -15 14 0 25 -4 25
-10 0 -5 11 -10 25 -10 16 0 25 -6 25 -15 0 -9 9 -15 25 -15 14 0 25 -4 25
-10 0 -5 11 -10 25 -10 14 0 25 -4 25 -10 0 -5 11 -10 25 -10 16 0 25 -6 25
-15 0 -10 10 -15 30 -15 17 0 30 -4 30 -10 0 -5 16 -10 35 -10 19 0 35 -4 35
-10 0 -5 11 -10 25 -10 14 0 25 -4 25 -10 0 -5 18 -10 40 -10 29 0 40 -4 40
-15 0 -9 9 -15 25 -15 14 0 25 -4 25 -10 0 -5 18 -10 40 -10 22 0 40 -4 40
-10 0 -5 18 -10 40 -10 29 0 40 -4 40 -15 0 -10 11 -15 35 -15 19 0 35 -4 35
-10 0 -5 25 -10 55 -10 30 0 55 5 55 10 0 6 23 10 50 10 38 0 50 4 50 15 0 11
12 15 50 15 28 0 50 5 50 10 0 6 25 10 55 10 30 0 55 5 55 10 0 6 16 10 35 10
24 0 35 5 35 15 0 12 13 15 55 15 30 0 55 5 55 10 0 6 16 10 35 10 19 0 35 5
35 10 0 6 11 10 25 10 14 0 25 5 25 10 0 6 18 10 40 10 29 0 40 4 40 15 0 11
11 15 40 15 22 0 40 5 40 10 0 6 11 10 25 10 14 0 25 5 25 10 0 6 11 10 25 10
16 0 25 6 25 15 0 11 11 15 40 15 22 0 40 5 40 10 0 6 11 10 25 10 16 0 25 6
25 15 0 9 9 15 25 15 14 0 25 5 25 10 0 6 7 10 15 10 8 0 15 5 15 10 0 6 11
10 25 10 14 0 25 5 25 10 0 6 11 10 25 10 14 0 25 5 25 10 0 6 11 10 25 10 16
0 25 6 25 15 0 8 7 15 15 15 8 0 15 5 15 10 0 6 11 10 25 10 14 0 25 5 25 11
0 18 27 39 50 39 23 0 50 21 50 39 0 6 11 11 25 11 14 0 25 5 25 10 0 6 7 10
15 10 8 0 15 7 15 15 0 8 11 17 25 21 14 3 25 10 25 15 0 5 11 9 25 9 16 0 25
6 25 15 0 8 5 15 11 15 14 0 39 25 39 39 0 6 5 11 11 11 14 0 39 25 39 39 0 6
7 11 15 11 8 0 15 5 15 10 0 6 5 10 11 10 13 0 39 25 39 38 0 5 11 13 25 16
14 4 25 13 25 21 0 8 7 15 15 15 8 0 15 9 15 20 0 11 5 20 10 20 6 0 10 7 10
15 0 8 7 15 15 15 8 0 15 5 15 10 0 6 7 10 15 10 8 0 15 7 15 15 0 8 5 15 10
15 6 0 10 11 10 25 0 14 5 25 11 25 16 0 39 26 39 44 0 9 5 16 11 16 17 0 39
27 39 49 0 12 6 21 15 21 9 0 15 9 15 25 0 14 5 25 11 25 17 0 39 27 39 49 0
12 6 21 15 21 8 0 15 9 15 20 0 11 5 20 10 20 6 0 10 16 10 35 0 24 5 35 15
35 9 0 15 9 15 25 0 14 5 25 10 25 6 0 10 16 10 35 0 24 5 35 15 35 10 0 15
11 15 35 0 24 5 35 15 35 10 0 15 11 15 35 0 19 5 35 10 35 6 0 10 20 10 45 0
33 4 45 15 45 12 0 15 13 15 60 0 33 4 60 10 60 6 0 10 37 10 90 0 73 3 90 15
90 13 0 15 25 15 165 0 140 -2 165 -15 165 -12 0 -15 17 -15 90 0 53 -4 90
-10 90 -6 0 -10 27 -10 60 0 47 -3 60 -15 60 -10 0 -15 10 -15 30 0 17 -4 30
-10 30 -5 0 -10 18 -10 40 0 29 -4 40 -15 40 -10 0 -15 11 -15 35 0 24 -5 35
-15 35 -10 0 -15 10 -15 30 0 17 -4 30 -10 30 -5 0 -10 11 -10 25 0 16 -6 25
-15 25 -9 0 -15 9 -15 25 0 14 -4 25 -10 25 -5 0 -10 11 -10 25 0 16 -6 25
-15 25 -8 0 -15 7 -15 16 0 18 -23 44 -39 44 -6 0 -11 11 -11 25 0 14 -5 25
-11 25 -17 0 -39 27 -39 49 0 12 -5 21 -11 21 -14 0 -39 25 -39 39 0 6 -7 11
-15 11 -9 0 -15 9 -15 25 0 18 -7 26 -25 31 -14 3 -25 10 -25 15 0 5 -7 9 -15
9 -8 0 -15 5 -15 11 0 14 -25 39 -39 39 -6 0 -11 5 -11 11 0 14 -25 39 -39 39
-6 0 -11 5 -11 11 0 14 -25 39 -39 39 -6 0 -11 5 -11 10 0 6 -11 10 -25 10
-15 0 -25 6 -25 15 0 10 -14 17 -40 21 -22 4 -40 11 -40 16 0 18 -29 38 -54
38 -14 0 -26 5 -26 10 0 6 -11 10 -25 10 -14 0 -25 5 -25 11 0 21 -29 39 -64
39 -25 0 -36 4 -36 15 0 9 -9 15 -25 15 -14 0 -25 5 -25 10 0 6 -18 10 -40 10
-29 0 -40 4 -40 15 0 11 -11 15 -39 15 -22 0 -41 4 -43 9 -1 6 -54 13 -115 17
-85 5 -113 10 -113 20 0 11 -45 14 -245 14 -199 0 -245 -3 -245 -14z"/>
</g>
</svg>
